<?xml version="1.0" standalone="no"?>
<!DOCTYPE svg PUBLIC "-//W3C//DTD SVG 20010904//EN"
 "http://www.w3.org/TR/2001/REC-SVG-20010904/DTD/svg10.dtd">
<svg version="1.0" xmlns="http://www.w3.org/2000/svg"
 width="512.000000pt" height="512.000000pt" viewBox="0 0 512.000000 512.000000"
 preserveAspectRatio="xMidYMid meet">
<metadata>
Created by potrace 1.11, written by Peter Selinger 2001-2013
</metadata>
<g transform="translate(0.000000,512.000000) scale(0.100000,-0.100000)"
fill="#000000" stroke="none">
<path d="M396 5104 c-182 -44 -337 -201 -381 -385 -13 -56 -15 -325 -15 -2159
0 -2309 -4 -2158 63 -2284 40 -78 135 -173 213 -213 126 -67 -25 -63 2284 -63
2309 0 2158 -4 2284 63 78 40 173 135 213 213 67 126 63 -25 63 2284 0 1834
-2 2103 -15 2159 -44 187 -199 342 -386 386 -94 22 -4231 21 -4323 -1z m1680
-1053 c9 -17 9 -30 2 -47 -11 -24 -18 -27 -76 -39 -50 -10 -109 -76 -128 -142
-20 -70 -13 -125 32 -224 54 -122 45 -189 -37 -283 l-40 -45 48 -36 c61 -46
76 -75 74 -142 -1 -53 -8 -75 -75 -233 -39 -93 -45 -134 -20 -144 25 -9 91 -7
160 6 57 10 66 10 84 -7 25 -22 26 -57 2 -78 -24 -22 -103 -38 -189 -38 -97 0
-147 25 -175 87 -26 60 -19 98 45 244 27 63 52 131 54 151 5 33 2 38 -45 75
-59 45 -86 92 -77 133 3 15 28 55 56 87 27 32 52 69 56 82 3 15 -6 48 -25 90
-43 93 -55 152 -50 231 12 163 139 306 268 299 36 -2 47 -8 56 -27z m1101 14
c65 -27 120 -81 155 -153 31 -62 33 -73 33 -167 -1 -94 -3 -105 -39 -182 -25
-54 -36 -90 -33 -105 4 -13 29 -50 56 -82 28 -32 53 -72 56 -87 9 -41 -18 -88
-75 -132 -58 -45 -62 -63 -26 -147 13 -30 37 -87 54 -126 43 -102 48 -143 24
-198 -28 -62 -78 -87 -175 -87 -86 0 -165 16 -189 38 -24 21 -23 56 2 78 18
17 27 17 84 7 69 -13 135 -15 160 -6 28 11 18 62 -36 183 -40 88 -53 131 -56
179 -6 80 8 112 66 153 26 18 49 34 51 35 2 2 -12 21 -32 43 -87 96 -97 165
-42 290 19 44 38 100 41 124 15 106 -59 229 -147 243 -22 4 -47 13 -55 21 -17
18 -18 65 -2 81 17 17 81 15 125 -3z m-1739 -146 l-3 -82 -392 -170 c-216 -94
-393 -174 -393 -177 0 -3 177 -83 393 -177 l392 -170 3 -83 c3 -76 1 -82 -15
-76 -10 4 -242 107 -516 228 l-497 222 0 56 0 56 508 227 c279 124 511 227
515 227 4 0 7 -37 5 -81z m2764 -146 l508 -226 0 -57 0 -57 -508 -226 c-280
-125 -512 -227 -516 -227 -4 0 -6 36 -4 81 l3 81 393 171 c215 94 392 173 392
177 0 4 -177 83 -392 177 l-393 171 -3 81 c-2 45 0 81 4 81 4 0 236 -102 516
-227z m-1907 -673 c10 -32 34 -50 66 -50 36 0 37 -9 3 -40 -21 -21 -24 -30
-19 -62 8 -43 6 -44 -35 -23 -27 14 -33 14 -60 0 -43 -22 -48 -19 -40 25 6 34
4 42 -16 61 -29 27 -30 39 -5 39 33 0 51 11 67 41 17 34 30 37 39 9z m280 0
c10 -32 34 -50 66 -50 36 0 37 -9 3 -40 -21 -21 -24 -30 -19 -62 8 -43 6 -44
-35 -23 -27 14 -33 14 -60 0 -43 -22 -48 -19 -40 25 6 34 4 42 -16 61 -29 27
-30 39 -5 39 33 0 51 11 67 41 17 34 30 37 39 9z m280 0 c10 -32 34 -50 66
-50 36 0 37 -9 3 -40 -21 -21 -24 -30 -19 -62 8 -43 6 -44 -35 -23 -27 14 -33
14 -60 0 -43 -22 -48 -19 -40 25 6 34 4 42 -16 61 -29 27 -30 39 -5 39 33 0
51 11 67 41 17 34 30 37 39 9z m-2305 -1327 c1 -151 1 -157 18 -138 67 80 161
72 210 -18 14 -27 17 -63 17 -242 0 -232 -6 -268 -56 -310 -23 -19 -42 -25
-76 -25 -38 0 -50 5 -79 34 l-34 34 0 -29 0 -29 -75 0 -75 0 0 440 0 440 75 0
75 0 0 -157z m853 143 c39 -16 82 -61 96 -99 7 -18 11 -141 11 -328 0 -326 -2
-340 -56 -391 -45 -42 -75 -48 -230 -48 l-144 0 0 440 0 440 145 0 c101 0 155
-4 178 -14z m1307 -61 l0 -76 -77 3 -78 3 -3 73 -3 72 81 0 80 0 0 -75z m2000
-365 l0 -440 -75 0 -75 0 0 33 0 32 -23 -27 c-61 -72 -162 -63 -203 19 -17 34
-19 63 -19 258 0 190 2 224 17 252 45 82 121 97 188 37 l40 -36 0 156 0 156
75 0 75 0 0 -440z m-2805 181 c82 -38 104 -89 105 -248 l0 -113 -120 0 -120 0
0 -60 c0 -55 2 -60 24 -66 38 -9 66 4 66 32 0 23 2 24 75 24 l75 0 0 -33 c0
-56 -39 -119 -90 -145 -64 -33 -169 -28 -227 10 -70 46 -78 75 -78 293 0 189
0 190 27 236 49 83 167 114 263 70z m463 0 c20 -10 45 -28 55 -39 22 -24 46
-86 47 -119 0 -22 -4 -23 -74 -23 -69 0 -75 2 -78 21 -7 49 -69 50 -76 1 -6
-37 16 -59 85 -87 121 -48 153 -88 153 -188 0 -93 -30 -143 -105 -178 -124
-57 -271 17 -283 141 l-5 50 70 0 c70 0 71 0 76 -30 10 -47 88 -55 102 -9 13
39 -5 60 -83 96 -43 19 -88 44 -100 56 -91 84 -71 250 36 307 49 25 131 26
180 1z m642 -17 l40 -36 0 31 0 31 75 0 75 0 0 -375 c0 -412 -1 -419 -59 -468
-61 -51 -171 -60 -250 -19 -48 25 -81 83 -81 145 l0 47 75 0 c72 0 75 -1 75
-23 0 -29 18 -47 47 -47 32 0 43 28 43 107 l0 68 -23 -27 c-61 -72 -162 -63
-203 19 -17 34 -19 63 -19 258 0 242 6 272 63 307 47 30 96 23 142 -18z m659
10 c17 -14 35 -42 41 -62 5 -21 10 -150 10 -294 l0 -258 -80 0 -80 0 0 239 c0
196 -3 241 -14 251 -24 19 -59 8 -67 -20 -4 -14 -7 -125 -8 -247 l-1 -223 -75
0 -75 0 0 315 0 315 75 0 75 0 0 -31 0 -31 40 36 c52 46 111 50 159 10z m446
7 c82 -38 104 -89 105 -248 l0 -113 -120 0 -120 0 0 -60 c0 -55 2 -60 24 -66
38 -9 66 4 66 32 0 23 2 24 75 24 l75 0 0 -33 c0 -56 -39 -119 -90 -145 -64
-33 -169 -28 -227 10 -70 46 -78 75 -78 293 0 189 0 190 27 236 49 83 167 114
263 70z m-1405 -306 l0 -315 -80 0 -80 0 0 308 c0 170 3 312 7 315 3 4 39 7
80 7 l73 0 0 -315z m-1710 -240 l0 -75 -75 0 -75 0 0 75 0 75 75 0 75 0 0 -75z"/>
<path d="M560 1524 c-11 -27 -14 -275 -4 -312 8 -26 48 -39 69 -22 12 10 15
43 15 174 0 172 -4 186 -47 186 -16 0 -27 -8 -33 -26z"/>
<path d="M1240 1490 l0 -291 47 3 c71 5 73 11 73 288 0 277 -2 283 -73 288
l-47 3 0 -291z"/>
<path d="M4482 1538 c-8 -8 -12 -61 -12 -174 0 -173 4 -189 51 -182 33 5 41
51 37 211 -2 109 -6 140 -18 147 -21 13 -44 12 -58 -2z"/>
<path d="M1776 1534 c-3 -9 -6 -38 -6 -65 l0 -49 45 0 45 0 0 46 c0 25 -5 54
-10 65 -13 24 -65 26 -74 3z"/>
<path d="M2972 1538 c-8 -8 -12 -61 -12 -174 0 -173 4 -189 51 -182 33 5 41
51 37 211 -2 109 -6 140 -18 147 -21 13 -44 12 -58 -2z"/>
<path d="M3986 1534 c-3 -9 -6 -38 -6 -65 l0 -49 45 0 45 0 0 46 c0 25 -5 54
-10 65 -13 24 -65 26 -74 3z"/>
</g>
</svg>
