<?xml version="1.0" standalone="no"?>
<!DOCTYPE svg PUBLIC "-//W3C//DTD SVG 20010904//EN"
 "http://www.w3.org/TR/2001/REC-SVG-20010904/DTD/svg10.dtd">
<svg version="1.0" xmlns="http://www.w3.org/2000/svg"
 width="758.000000pt" height="758.000000pt" viewBox="0 0 758.000000 758.000000"
 preserveAspectRatio="xMidYMid meet">
<metadata>
Created by potrace 1.11, written by Peter Selinger 2001-2013
</metadata>
<g transform="translate(0.000000,758.000000) scale(0.100000,-0.100000)"
fill="#000000" stroke="none">
<path d="M3205 7242 c-26 -6 -34 -20 -29 -49 3 -15 1 -22 -6 -18 -5 3 -10 1
-10 -5 0 -7 -7 -10 -15 -6 -8 3 -15 1 -15 -4 0 -6 5 -10 12 -10 6 0 8 -3 5 -6
-4 -4 -13 -1 -22 6 -8 7 -15 9 -16 4 0 -5 -4 1 -10 14 -5 13 -13 20 -19 17 -5
-3 -10 -1 -10 5 0 6 -5 8 -11 4 -6 -3 -9 -19 -7 -35 3 -17 0 -29 -6 -29 -6 0
-2 -7 8 -15 11 -8 17 -15 13 -15 -5 0 -2 -6 5 -14 7 -8 16 -12 21 -9 4 2 7 -3
7 -11 0 -9 6 -16 14 -16 8 0 16 -5 18 -11 2 -6 22 -12 45 -12 23 -1 39 1 36 6
-2 4 1 7 6 7 6 0 11 -5 11 -10 0 -6 10 -2 22 10 12 11 31 20 42 20 16 0 18 2
7 9 -11 7 -9 10 8 16 11 3 21 10 21 15 0 5 10 12 21 15 17 6 19 9 8 16 -10 6
-8 9 9 9 16 0 21 4 16 13 -5 7 0 6 11 -3 11 -9 16 -10 11 -2 -5 8 0 12 16 13
44 3 82 -1 93 -11 7 -5 14 -7 17 -4 11 10 85 -35 103 -63 10 -15 25 -34 32
-42 8 -7 12 -20 9 -28 -3 -8 -2 -12 3 -9 5 3 11 -15 13 -42 3 -34 0 -51 -12
-60 -8 -8 -9 -11 -2 -7 9 5 12 -2 10 -24 -1 -17 -5 -31 -8 -31 -3 0 -19 -23
-35 -50 -17 -28 -40 -53 -52 -56 -12 -3 -26 -18 -32 -33 -7 -15 -24 -39 -40
-53 -16 -15 -31 -41 -34 -58 -4 -17 -12 -29 -19 -28 -7 2 -13 -4 -13 -12 0 -8
-6 -21 -12 -28 -7 -7 -13 -20 -13 -28 0 -8 -4 -13 -9 -10 -8 5 -17 -30 -24
-90 -1 -11 -7 -27 -13 -35 -7 -8 -11 -26 -9 -41 2 -15 -3 -29 -10 -32 -15 -6
-17 -56 -1 -56 6 0 4 -4 -4 -10 -8 -5 -11 -12 -7 -16 4 -4 0 -18 -8 -31 -9
-13 -12 -23 -7 -23 5 0 9 -7 9 -15 0 -8 -4 -12 -8 -9 -4 2 -8 -4 -8 -13 -1
-197 1 -258 10 -264 8 -5 8 -8 0 -13 -6 -4 -11 -12 -11 -17 0 -6 4 -8 8 -5 4
2 9 -7 10 -22 1 -19 -1 -23 -7 -13 -7 11 -9 11 -14 0 -6 -14 -9 4 -10 49 0 12
-6 22 -13 22 -8 0 -14 5 -14 11 0 5 6 7 13 3 6 -4 1 5 -13 21 -14 16 -19 25
-12 21 6 -4 12 -3 12 1 0 5 -6 15 -12 22 -11 11 -10 12 2 6 12 -6 13 -5 3 6
-7 7 -13 23 -13 36 0 13 -4 23 -10 23 -5 0 -10 11 -10 25 0 14 -5 25 -11 25
-6 0 -8 7 -5 15 3 9 -1 18 -9 21 -9 4 -13 15 -11 30 3 16 0 24 -10 24 -8 0
-14 7 -14 16 0 9 -9 29 -21 45 -11 16 -18 29 -14 29 3 0 0 10 -7 23 -7 12 -13
42 -13 66 0 26 -6 46 -13 49 -10 3 -10 7 0 20 10 12 10 14 1 8 -16 -9 -17 6
-1 22 9 9 9 12 0 12 -7 0 -12 5 -12 11 0 5 4 8 8 5 10 -6 9 25 -2 42 -4 7 -2
12 6 12 11 0 10 2 0 9 -11 7 -11 9 1 14 9 3 14 16 13 31 -2 14 1 26 6 26 5 0
7 4 4 8 -6 10 29 31 61 35 12 2 26 7 30 12 5 4 1 5 -7 1 -9 -5 -8 -2 3 7 9 8
17 19 17 25 0 6 5 12 12 14 15 5 12 86 -5 102 -6 7 -18 11 -26 8 -8 -3 -11 0
-7 6 8 14 -18 9 -37 -7 -13 -10 -15 -9 -10 8 3 12 9 21 14 21 5 0 6 7 3 15 -4
8 -1 22 6 30 17 21 19 64 4 79 -7 8 -16 26 -20 40 -3 15 -9 25 -12 22 -2 -3
-14 0 -26 7 -31 17 -58 17 -52 0 3 -8 2 -11 -3 -8 -5 3 -12 1 -16 -5 -4 -6
-11 -7 -17 -4 -7 5 -9 1 -5 -9 4 -10 2 -16 -6 -14 -7 1 -13 -10 -15 -25 -2
-16 -7 -28 -12 -28 -5 0 -6 -7 -3 -17 4 -10 2 -14 -4 -10 -5 3 -10 0 -10 -8 0
-8 4 -15 8 -15 4 0 10 -13 14 -30 4 -16 11 -30 16 -30 5 0 9 -5 9 -11 0 -5 -6
-7 -12 -3 -10 6 -10 4 0 -8 13 -17 13 -78 0 -78 -4 0 -7 -3 -7 -7 1 -5 1 -71
0 -148 -1 -134 -2 -138 -18 -115 -27 41 -96 109 -105 104 -4 -3 -5 2 -2 10 3
9 1 17 -5 17 -32 4 -36 6 -33 17 1 7 -7 12 -17 12 -27 0 -35 17 -14 29 10 6
13 11 6 11 -7 0 -10 7 -6 17 5 12 3 14 -7 8 -10 -6 -12 -4 -7 8 3 10 2 17 -3
17 -6 0 -9 3 -9 8 4 22 -4 31 -31 37 -17 4 -28 11 -24 16 3 6 -11 8 -34 7 -22
-2 -38 -6 -36 -10 2 -4 -5 -10 -16 -13 -18 -6 -19 -9 -8 -23 10 -12 10 -14 1
-8 -7 4 -13 3 -13 -3 0 -5 5 -13 10 -16 7 -4 7 -13 1 -24 -8 -14 -4 -23 19
-42 16 -13 29 -30 30 -36 0 -12 37 -16 132 -16 10 0 15 -3 13 -7 -4 -7 29 -45
67 -76 18 -15 58 -67 58 -75 0 -4 -16 -2 -35 3 -19 6 -31 16 -28 21 4 6 0 8
-10 4 -10 -3 -17 -2 -17 2 0 5 -9 7 -20 4 -16 -4 -19 -2 -14 13 4 15 4 16 -4
5 -7 -10 -37 -14 -110 -15 -55 -1 -98 2 -96 5 1 3 -3 6 -11 6 -8 0 -11 -5 -8
-10 4 -6 0 -8 -10 -4 -10 3 -17 2 -17 -3 0 -5 -7 -7 -15 -4 -8 4 -15 1 -15 -5
0 -6 -9 -11 -20 -11 -11 0 -20 -4 -20 -10 0 -5 -6 -9 -12 -7 -7 1 -12 -3 -11
-9 1 -6 -4 -11 -12 -11 -8 0 -12 4 -9 9 11 17 -4 7 -40 -27 -21 -19 -44 -35
-52 -35 -8 0 -14 -5 -14 -11 0 -7 -10 -20 -22 -30 -11 -11 -18 -19 -14 -19 4
0 -2 -12 -13 -26 -11 -15 -18 -30 -15 -35 5 -8 -9 -13 -28 -10 -4 0 -5 -6 -2
-14 4 -8 1 -15 -5 -15 -7 0 -10 -10 -7 -24 3 -16 -1 -27 -12 -31 -14 -5 -14
-7 -2 -15 9 -6 10 -10 3 -10 -6 0 -12 -12 -12 -27 -2 -53 -4 -63 -15 -63 -7 0
-7 -3 1 -8 14 -9 12 -44 -2 -54 -6 -5 -6 -8 1 -8 10 0 13 -21 15 -102 1 -15 5
-25 10 -22 5 3 9 -6 9 -20 0 -14 5 -26 10 -26 6 0 10 -7 10 -15 0 -8 9 -23 20
-32 11 -10 20 -25 20 -34 0 -9 17 -24 38 -35 20 -10 41 -25 45 -31 4 -7 15
-13 23 -13 9 0 12 -5 8 -12 -5 -8 -2 -9 9 -5 9 3 19 2 22 -3 3 -5 19 -8 36 -6
16 2 32 -1 35 -6 6 -9 74 -8 74 2 0 3 9 6 20 7 13 1 18 -3 14 -10 -3 -7 2 -3
10 7 9 11 16 15 16 8 0 -6 10 -9 21 -7 26 5 30 9 33 28 1 8 16 27 33 41 19 16
30 33 26 41 -3 8 0 15 6 15 6 0 11 13 11 29 0 17 5 33 10 36 6 3 10 11 10 16
0 6 -4 7 -10 4 -20 -13 -9 5 24 39 19 19 37 31 40 28 3 -3 6 7 6 21 0 17 5 27
15 27 8 0 15 7 15 16 0 9 5 12 13 8 9 -5 9 -4 0 6 -9 10 -9 15 0 25 9 8 11 44
10 111 -4 116 -4 124 -12 119 -11 -6 -42 22 -39 36 2 8 -3 13 -9 12 -7 -2 -13
4 -13 13 0 8 -4 12 -10 9 -5 -3 -10 1 -10 9 0 9 -5 16 -11 16 -5 0 -7 -5 -3
-11 5 -8 1 -8 -14 0 -27 14 -54 15 -32 1 8 -5 10 -10 4 -10 -5 0 -15 5 -22 12
-9 9 -12 9 -12 0 0 -7 -11 -12 -25 -12 -16 0 -25 -6 -25 -15 0 -8 -8 -23 -17
-33 -24 -23 -23 -52 5 -86 20 -26 25 -28 48 -17 14 6 22 16 19 21 -3 6 -2 10
2 10 5 0 10 17 11 37 3 44 5 47 38 49 31 1 60 -37 49 -63 -5 -10 -7 -22 -6
-26 0 -4 -4 -18 -11 -30 -7 -12 -11 -26 -10 -30 1 -5 -2 -6 -8 -2 -5 3 -13 -2
-17 -12 -4 -10 -12 -23 -17 -30 -31 -35 -36 -43 -30 -43 4 0 -2 -8 -12 -17
-21 -20 -33 -103 -15 -103 6 0 11 -6 11 -14 0 -8 7 -17 16 -20 18 -7 18 -71 0
-95 -8 -11 -8 -13 2 -7 11 7 11 4 1 -12 -8 -12 -19 -18 -28 -14 -14 5 -14 4
-1 -13 9 -11 10 -16 3 -11 -8 4 -13 1 -13 -8 0 -17 -19 -22 -21 -6 -1 6 -3 15
-4 20 -1 6 -4 12 -5 15 -3 7 -7 22 -9 36 0 5 -5 8 -10 4 -6 -3 -8 4 -6 15 2
11 -3 24 -13 30 -16 9 -16 9 1 10 10 0 15 4 12 10 -3 5 1 20 8 32 8 13 13 31
12 40 -2 10 1 20 5 23 12 7 -9 66 -29 85 -10 10 -34 15 -64 15 -27 0 -52 4
-56 10 -11 13 -20 66 -11 60 4 -2 7 10 8 28 0 17 6 33 11 35 6 2 11 8 11 13 0
6 -4 8 -9 5 -5 -4 -12 0 -14 6 -4 8 -6 7 -6 -4 -1 -11 -8 -16 -21 -13 -12 2
-23 -2 -27 -10 -3 -8 -11 -15 -19 -15 -8 0 -14 -7 -14 -15 0 -9 -11 -20 -25
-25 -14 -5 -25 -12 -25 -15 0 -4 5 -3 11 0 7 5 7 2 0 -11 -16 -31 -30 -104
-19 -104 5 0 8 -6 7 -12 -5 -39 3 -59 26 -68 14 -5 24 -13 24 -17 -3 -13 18
-58 25 -55 10 4 57 -10 52 -15 -8 -8 21 -33 38 -33 9 0 16 -4 16 -10 0 -5 15
-13 33 -18 25 -7 31 -13 29 -30 -2 -12 1 -22 6 -22 11 0 24 -39 14 -41 -35 -6
-182 -2 -182 4 0 5 -8 7 -17 5 -20 -4 -55 21 -47 34 3 4 1 8 -3 8 -5 0 -24 12
-41 26 -27 23 -30 29 -20 42 9 11 9 14 1 9 -6 -4 -14 -3 -18 3 -3 5 -2 10 4
10 6 0 -1 11 -14 24 -15 15 -22 31 -18 44 2 11 0 29 -6 39 -7 14 -7 24 2 33 8
9 8 11 1 7 -7 -4 -14 0 -17 8 -4 10 -1 12 11 8 14 -5 15 -3 5 8 -15 15 -18 33
-5 25 5 -3 9 1 9 9 0 8 -4 12 -9 9 -13 -8 -10 10 5 25 10 11 10 13 0 7 -7 -4
-13 -2 -13 3 0 6 4 11 9 11 5 0 11 18 15 40 4 27 10 39 18 34 8 -5 9 -2 5 9
-3 10 -2 17 4 17 5 0 9 6 8 13 -3 25 1 38 11 32 6 -3 10 0 10 7 0 8 9 20 19
28 11 7 18 17 16 20 -3 4 7 12 21 19 14 6 22 16 19 21 -3 6 1 10 10 10 9 0 13
5 10 10 -5 9 15 15 38 11 4 0 7 6 7 15 0 8 4 13 9 9 5 -3 12 -1 16 5 3 5 17
10 31 10 14 0 23 4 19 9 -5 9 3 10 64 11 14 0 27 4 30 9 3 5 20 10 36 12 22 3
29 0 27 -10 -3 -12 0 -12 12 -1 10 7 16 8 16 2 0 -6 18 -10 41 -10 23 0 44 -4
48 -9 3 -6 20 -13 36 -17 17 -4 37 -15 46 -24 9 -9 35 -32 58 -51 22 -19 41
-41 41 -48 0 -16 24 -43 38 -43 12 0 25 -47 17 -60 -4 -6 -1 -10 5 -10 6 0 9
-4 5 -9 -3 -5 6 -26 20 -47 14 -20 25 -41 25 -46 0 -5 5 -6 10 -3 6 3 10 -1
10 -10 0 -9 -4 -13 -10 -10 -5 3 -3 -13 5 -36 8 -22 12 -45 9 -50 -3 -5 -1 -9
4 -9 6 0 8 -9 5 -19 -3 -11 5 -32 17 -49 17 -23 22 -46 24 -101 2 -39 6 -74
10 -78 3 -3 6 -29 6 -56 0 -44 -2 -49 -20 -44 -11 3 -20 0 -20 -6 0 -6 -7 -2
-15 9 -10 12 -13 14 -10 3 5 -13 -1 -15 -45 -9 -31 4 -50 3 -50 -4 0 -5 -7 -1
-15 10 -10 13 -13 14 -10 3 4 -10 0 -16 -9 -16 -8 0 -13 4 -10 9 3 4 0 8 -5 8
-6 0 -11 -5 -11 -10 0 -7 -6 -7 -19 0 -14 7 -21 6 -24 -3 -3 -9 -7 -9 -20 2
-12 9 -17 10 -17 2 0 -9 -5 -9 -20 -1 -14 8 -20 8 -20 0 0 -6 -5 -8 -12 -4
-19 12 -48 12 -48 0 0 -5 -7 -1 -15 10 -11 14 -14 15 -9 3 4 -14 -1 -16 -33
-12 -21 2 -44 6 -50 8 -7 3 -13 -1 -14 -8 0 -7 -4 -3 -9 8 -7 16 -9 16 -9 4
-1 -13 -9 -16 -38 -12 -21 2 -44 6 -50 8 -7 3 -13 -1 -13 -7 0 -7 -7 -3 -15 8
-14 18 -15 18 -9 0 6 -16 4 -17 -14 -7 -15 8 -22 8 -22 1 0 -8 -6 -8 -20 0
-15 8 -20 8 -21 -2 0 -7 -4 -4 -9 7 l-9 20 0 -20 c-1 -17 -3 -17 -11 -5 -7 11
-10 11 -10 2 0 -9 -5 -10 -19 -2 -13 7 -20 7 -23 -1 -2 -7 -12 -7 -31 0 -20 8
-27 7 -27 -1 0 -7 -7 -3 -15 8 -11 14 -14 15 -9 3 4 -14 -1 -16 -33 -12 -21 2
-44 6 -50 8 -7 3 -13 -1 -13 -7 0 -7 -7 -3 -15 8 -10 12 -13 14 -10 3 5 -13
-1 -15 -45 -9 -27 4 -50 3 -50 -2 0 -4 -5 -8 -11 -8 -5 0 -8 4 -4 9 3 5 0 13
-6 17 -8 4 -9 3 -5 -4 4 -7 3 -12 -2 -12 -6 0 -15 -13 -21 -30 -5 -16 -7 -30
-3 -30 4 0 8 -9 8 -20 0 -11 -4 -20 -8 -20 -4 0 -3 -10 3 -23 10 -22 16 -23
99 -22 58 1 88 -2 87 -9 -1 -6 14 -12 33 -13 58 -2 61 -3 56 -11 -2 -4 11 -8
29 -8 18 0 31 4 29 8 -3 5 -10 5 -16 2 -7 -5 -8 -2 -4 5 6 9 13 8 28 -6 11
-10 22 -17 24 -15 13 8 34 0 28 -10 -5 -8 -1 -8 10 1 12 10 20 11 24 4 4 -6
19 -14 34 -18 15 -4 29 -13 32 -22 3 -8 10 -12 15 -9 4 3 20 -8 35 -24 14 -17
31 -30 36 -30 6 0 10 -7 10 -16 0 -9 8 -23 18 -30 9 -7 18 -17 18 -23 1 -6 2
-16 3 -22 0 -5 7 -7 14 -3 8 5 7 2 -2 -9 -12 -15 -12 -22 -1 -43 8 -13 13 -53
13 -87 0 -34 4 -65 10 -69 10 -6 17 -337 7 -339 -3 0 -13 -2 -22 -4 -9 -2 -19
4 -22 12 -3 8 -10 12 -14 9 -11 -7 -95 13 -102 24 -5 8 -129 16 -155 10 -5 -1
-14 -1 -20 0 -22 5 -81 -2 -90 -11 -5 -5 -16 -9 -25 -9 -8 0 -28 -7 -43 -15
-19 -9 -25 -10 -21 -2 4 7 -2 4 -14 -6 -11 -11 -26 -16 -31 -12 -6 3 -14 -1
-17 -9 -3 -9 -10 -13 -15 -10 -5 3 -12 -1 -15 -10 -3 -8 -12 -17 -20 -20 -9
-4 -12 -2 -8 5 3 6 -3 5 -14 -2 -28 -17 -35 -8 -22 27 12 29 11 164 -1 164 -3
0 -5 11 -4 25 2 14 -1 23 -6 19 -8 -4 -14 25 -10 49 0 4 -6 7 -14 7 -8 0 -14
3 -14 8 3 19 -2 33 -11 27 -5 -3 -10 1 -10 9 0 9 -5 16 -11 16 -5 0 -7 5 -4
10 7 11 -51 71 -60 62 -3 -3 -5 2 -5 11 0 10 -7 17 -15 17 -8 0 -15 5 -15 11
0 5 -4 8 -9 4 -6 -3 -14 3 -20 12 -6 10 -11 14 -11 9 0 -5 -8 1 -19 12 -10 12
-21 19 -25 15 -3 -3 -6 0 -6 8 0 11 -2 11 -10 -1 -7 -11 -10 -11 -10 -2 0 7
-4 10 -10 7 -5 -3 -10 -1 -10 5 0 6 -8 10 -17 9 -10 -2 -28 2 -40 9 -25 14
-193 21 -193 9 0 -5 -4 -5 -10 -2 -5 3 -10 2 -10 -3 0 -8 -26 -17 -71 -26 -18
-3 -99 -51 -99 -58 0 -4 -6 -8 -13 -8 -16 0 -103 -80 -99 -92 1 -4 -2 -8 -7
-8 -13 0 -70 -58 -64 -64 3 -3 -4 -21 -16 -41 -12 -20 -19 -41 -15 -46 3 -5 0
-8 -6 -7 -7 2 -14 -10 -16 -26 -1 -16 -9 -33 -16 -37 -10 -7 -10 -9 0 -9 6 0
12 -5 12 -11 0 -5 -4 -8 -9 -5 -5 3 -12 -9 -15 -27 -11 -55 -12 -221 -2 -242
6 -11 9 -24 8 -29 -2 -5 2 -12 7 -16 6 -3 12 -19 13 -36 1 -16 5 -31 9 -34 4
-3 9 -14 11 -25 1 -10 11 -27 21 -37 9 -10 17 -25 17 -33 0 -8 6 -14 13 -12 6
1 11 -6 9 -15 -2 -10 2 -18 9 -18 18 0 49 -40 50 -64 0 -12 3 -15 6 -8 4 9 10
7 22 -7 10 -12 21 -18 25 -14 3 3 6 2 6 -4 0 -6 11 -22 25 -35 21 -21 23 -27
10 -32 -8 -3 -15 -2 -15 2 0 9 -49 32 -67 32 -7 0 -13 5 -13 12 0 6 -3 8 -7 5
-3 -4 -12 1 -20 11 -8 9 -11 10 -7 2 5 -8 -4 -5 -20 8 -16 12 -36 22 -46 22
-9 0 -33 16 -53 35 -21 20 -37 33 -37 29 0 -4 -8 0 -18 9 -10 10 -22 14 -25
10 -4 -3 -7 1 -7 10 0 8 -9 18 -19 22 -11 3 -22 12 -25 20 -3 8 -12 15 -19 15
-7 0 -20 11 -27 25 -7 14 -17 25 -22 25 -4 0 -8 7 -8 15 0 8 -3 14 -7 14 -22
-4 -30 4 -42 36 -7 19 -17 35 -22 35 -6 0 -8 4 -4 9 3 5 -2 16 -10 24 -8 9
-15 21 -15 27 0 6 -4 8 -10 5 -6 -3 -10 4 -11 17 0 13 -2 31 -5 41 -2 9 -6 25
-7 34 -2 10 -14 18 -30 18 -34 2 -46 -6 -52 -34 -2 -13 -9 -29 -16 -37 -9 -11
-8 -14 2 -14 12 0 12 -2 0 -9 -11 -7 -11 -9 0 -13 7 -2 14 -18 15 -34 2 -43 3
-46 13 -39 6 3 8 -4 6 -15 -2 -12 5 -30 18 -43 12 -12 21 -27 19 -34 -1 -6 7
-14 18 -18 11 -4 18 -11 15 -16 -4 -5 5 -13 19 -19 14 -5 26 -12 26 -15 0 -4
-6 -3 -12 0 -7 4 -2 -3 12 -14 14 -11 33 -27 43 -35 9 -9 20 -16 23 -16 3 0
12 -6 19 -12 26 -24 40 -33 78 -53 20 -11 37 -25 37 -31 0 -7 8 -10 20 -7 12
3 20 0 20 -6 0 -7 5 -9 10 -6 6 3 10 1 10 -4 0 -6 10 -11 23 -11 18 0 19 -2 7
-10 -8 -5 -10 -10 -5 -11 6 -1 15 -2 20 -4 6 -1 20 -3 32 -3 12 -1 28 -8 35
-15 7 -8 21 -13 31 -11 9 1 15 -2 11 -7 -3 -5 2 -11 10 -14 9 -3 23 -7 32 -10
8 -3 12 -10 8 -16 -4 -8 -9 -7 -15 2 -7 12 -9 12 -9 0 0 -11 -3 -11 -15 -1 -8
6 -19 9 -24 6 -5 -4 -12 -2 -16 4 -3 5 -17 10 -29 10 -13 0 -39 6 -57 14 -19
7 -40 11 -48 8 -8 -3 -11 0 -7 7 4 6 0 11 -11 12 -19 1 -35 4 -43 8 -3 2 -18
5 -35 7 -16 3 -32 9 -35 15 -3 5 -21 10 -38 12 -18 2 -45 13 -59 25 -14 12
-30 19 -35 16 -4 -3 -8 -1 -8 3 0 5 -9 14 -21 21 -13 9 -18 9 -14 2 10 -16
-35 10 -56 32 -9 10 -19 15 -23 11 -3 -3 -6 -1 -6 6 0 8 -8 11 -20 8 -10 -3
-18 -1 -17 3 3 10 -69 80 -81 80 -6 0 -13 7 -16 16 -3 8 -11 12 -17 9 -6 -4
-9 -1 -7 7 3 15 -53 78 -71 78 -7 0 -9 4 -6 10 6 10 -24 70 -36 70 -4 0 -10
16 -13 35 -4 19 -14 41 -22 50 -14 13 -14 15 2 15 13 0 10 5 -10 21 -15 12
-25 27 -22 34 2 7 -1 23 -8 36 -7 14 -12 39 -12 56 0 17 -6 39 -13 47 -8 9 -9
16 -5 16 5 0 10 53 10 118 0 133 5 184 17 193 5 3 9 14 11 23 1 10 8 21 16 26
7 4 10 15 7 23 -3 8 5 26 18 39 13 14 21 28 18 32 -3 3 2 8 11 12 9 3 13 10
10 15 -5 8 9 13 28 10 5 0 7 2 6 7 -5 17 28 52 49 52 14 0 23 6 23 16 0 8 5
12 11 8 6 -3 24 3 40 15 15 11 42 21 59 21 17 0 29 4 26 8 -3 5 28 9 69 9 42
1 78 -3 81 -8 3 -5 20 -9 39 -9 19 0 37 -5 40 -11 4 -6 14 -8 22 -5 8 3 11 1
8 -4 -3 -6 -1 -10 4 -10 6 0 11 -8 11 -17 0 -9 3 -13 6 -10 10 9 65 -25 61
-38 -2 -5 10 -23 27 -39 17 -15 26 -25 19 -22 -11 6 -11 -5 0 -34 11 -29 3
-48 -22 -61 -14 -7 -30 -12 -34 -10 -5 1 -6 -3 -2 -9 3 -5 2 -10 -4 -10 -16 0
-6 -31 13 -42 16 -9 17 -19 12 -69 -6 -51 -5 -58 9 -53 8 3 15 10 15 16 0 5 4
7 9 3 5 -3 12 4 16 15 4 11 11 18 16 14 5 -3 12 8 15 25 4 17 10 28 15 25 5
-3 9 0 9 5 0 6 -6 11 -12 11 -9 0 -9 3 1 9 13 8 13 12 0 27 -11 14 -11 16 0
10 10 -7 12 -3 6 14 -5 15 -3 20 3 16 7 -4 8 3 3 21 -4 16 -6 34 -3 42 2 8 0
11 -5 8 -6 -4 -13 10 -17 33 -4 26 -12 40 -21 40 -8 0 -15 5 -15 11 0 6 -13
23 -30 39 -16 15 -26 30 -22 34 3 4 -2 4 -12 0 -15 -6 -17 -4 -11 6 6 10 4 12
-8 7 -10 -3 -17 -3 -17 1 0 12 -76 53 -84 45 -3 -3 -6 -2 -6 3 0 5 -15 9 -33
9 -17 -1 -35 3 -39 9 -9 14 -70 15 -87 2 -12 -9 -13 -8 -7 4 6 12 5 12 -6 -1
-8 -9 -28 -15 -51 -14 -24 1 -41 -4 -46 -13 -6 -10 -10 -11 -15 -3 -5 8 -12 7
-22 -4 -9 -8 -20 -12 -26 -9 -7 4 -8 2 -4 -4 5 -8 0 -12 -13 -12 -12 0 -21 -5
-21 -11 0 -5 -5 -7 -10 -4 -6 3 -13 -1 -16 -9 -3 -9 -12 -16 -20 -16 -13 0
-19 -13 -15 -33 1 -5 -3 -6 -9 -2 -5 3 -10 1 -10 -5 0 -6 -4 -9 -8 -6 -4 2
-19 -12 -32 -32 -33 -49 -46 -62 -54 -55 -5 6 -11 -38 -7 -59 0 -5 -4 -8 -9
-8 -6 0 -10 -9 -10 -19 0 -11 -4 -22 -9 -26 -5 -3 -8 -19 -6 -35 3 -20 -1 -33
-12 -38 -11 -6 -14 -18 -11 -36 3 -14 1 -26 -4 -26 -5 0 -6 -4 -3 -10 11 -19
14 -50 4 -50 -6 0 -7 -5 -3 -12 4 -6 7 -49 6 -95 0 -58 4 -86 12 -89 7 -3 12
-19 11 -37 -1 -17 4 -42 11 -55 7 -14 10 -31 7 -38 -3 -8 -1 -14 4 -14 5 0 9
-8 10 -17 4 -49 8 -60 20 -56 9 4 11 0 7 -11 -3 -9 -1 -16 5 -16 6 0 11 -9 11
-21 0 -13 4 -18 12 -13 7 5 8 3 4 -5 -5 -7 0 -21 10 -32 9 -10 13 -19 8 -19
-5 0 -1 -5 9 -11 9 -5 17 -16 17 -23 0 -8 7 -16 15 -20 8 -3 14 -11 13 -18 -2
-7 2 -12 7 -13 21 -1 34 -16 28 -32 -4 -11 -3 -14 5 -9 7 4 12 1 12 -8 0 -9 8
-16 18 -16 9 0 30 -14 46 -30 16 -17 36 -30 43 -30 8 0 11 -4 8 -10 -3 -5 1
-10 10 -10 9 0 13 -4 10 -10 -3 -5 -1 -10 5 -10 7 0 26 -10 43 -22 18 -13 33
-22 35 -20 6 6 23 1 18 -6 -3 -5 10 -15 29 -22 19 -8 35 -19 35 -24 0 -6 5 -4
10 4 5 8 10 10 10 5 0 -6 10 -11 23 -12 12 -1 28 -11 36 -23 7 -11 24 -20 37
-20 13 0 24 -4 24 -8 0 -7 33 -13 93 -16 15 0 27 -7 27 -13 0 -12 5 -14 43
-17 6 -1 18 -8 25 -16 9 -10 11 -10 7 -2 -6 11 -3 12 13 3 26 -14 35 -14 26 0
-5 8 -1 8 14 0 11 -6 40 -11 63 -11 82 0 30 -11 -67 -14 -121 -5 -116 -4 -110
-15 3 -5 -11 -8 -31 -6 -21 1 -53 -4 -71 -12 -23 -9 -31 -10 -27 -2 4 6 -4 3
-19 -6 -14 -10 -26 -14 -26 -10 0 4 -6 3 -12 -3 -7 -5 -32 -15 -55 -21 -24 -7
-43 -16 -43 -21 0 -5 -6 -7 -14 -4 -7 3 -16 -2 -19 -10 -4 -9 -13 -16 -22 -16
-8 0 -15 -4 -15 -9 0 -4 -15 -12 -32 -17 -19 -6 -38 -21 -45 -34 -7 -14 -17
-24 -23 -23 -5 2 -9 -2 -7 -9 1 -7 -3 -12 -8 -13 -10 0 -53 -39 -57 -52 -2 -5
-7 -7 -11 -5 -5 1 -5 -3 -1 -9 4 -7 0 -17 -9 -23 -20 -16 -60 -93 -53 -104 3
-5 -3 -17 -13 -26 -11 -10 -18 -28 -17 -41 2 -15 -1 -22 -9 -19 -6 3 -12 -2
-12 -10 0 -8 5 -12 11 -9 6 4 5 -1 -3 -10 -13 -16 -9 -21 14 -18 6 1 2 -5 -9
-13 -16 -13 -18 -28 -17 -113 1 -118 3 -136 16 -145 6 -5 4 -8 -5 -8 -13 0
-13 -1 0 -10 13 -9 13 -10 0 -10 -12 -1 -11 -4 4 -15 10 -7 15 -18 12 -24 -4
-6 1 -22 11 -37 9 -15 18 -34 20 -43 1 -9 7 -17 12 -19 6 -2 11 -12 11 -22 0
-10 7 -20 15 -24 8 -3 14 -9 13 -13 -6 -16 121 -147 142 -148 8 0 14 -6 13
-12 -2 -7 6 -13 16 -13 10 0 22 -7 25 -16 4 -9 13 -14 21 -10 8 3 15 1 15 -4
0 -5 9 -7 20 -5 12 2 20 -2 20 -9 0 -8 12 -12 33 -12 20 1 31 -4 30 -12 -2 -6
0 -11 5 -11 4 1 22 1 40 0 23 -1 31 -5 26 -14 -6 -9 -4 -9 7 0 7 7 20 13 28
13 14 0 14 -1 1 -10 -9 -6 -10 -10 -3 -10 6 0 15 5 18 10 3 5 11 10 16 10 6 0
8 -4 5 -8 -2 -4 4 -8 14 -8 10 0 16 5 13 12 -2 7 5 10 21 9 13 -2 27 3 29 10
3 7 17 11 31 10 14 -2 30 3 37 11 7 9 20 12 32 8 13 -4 17 -2 13 5 -5 7 1 11
14 11 12 0 18 4 15 10 -6 9 8 14 27 11 5 0 7 4 5 11 -1 7 5 13 13 13 8 0 14 7
12 14 -1 7 1 10 6 7 8 -5 30 13 59 48 10 11 10 16 0 19 -7 3 -4 6 6 6 11 1 15
5 11 13 -5 8 -2 9 10 5 9 -4 15 -3 11 2 -3 5 1 16 10 24 15 16 38 97 26 97 -3
0 1 5 9 9 12 8 15 31 14 122 0 77 -4 114 -12 117 -7 2 -12 16 -12 31 0 15 -3
31 -8 35 -4 4 -8 12 -8 17 -1 5 -2 14 -3 19 0 6 -10 10 -21 10 -13 0 -18 5
-14 14 3 8 -4 23 -15 33 -12 9 -21 23 -21 30 0 7 -6 12 -12 10 -7 -1 -12 4
-11 11 2 6 -4 12 -12 12 -8 0 -15 4 -15 9 0 5 -9 13 -20 16 -11 4 -17 11 -14
17 4 6 2 8 -4 4 -6 -3 -13 -2 -17 4 -4 6 -11 8 -16 5 -5 -4 -9 1 -9 10 0 9 -4
14 -9 11 -5 -3 -14 1 -21 9 -7 8 -23 13 -36 11 -13 -3 -26 0 -30 5 -4 6 -11 6
-19 -1 -9 -8 -15 -8 -20 0 -3 5 -16 8 -28 5 -12 -3 -31 -6 -42 -8 -11 -1 -26
-7 -34 -11 -10 -7 -12 -5 -7 5 4 8 1 6 -7 -3 -8 -10 -17 -18 -21 -18 -10 0
-39 -30 -29 -30 4 0 3 -4 -2 -8 -19 -14 -35 -57 -33 -89 2 -17 6 -29 10 -26 5
2 8 -3 8 -11 0 -9 5 -16 11 -16 5 0 8 -4 5 -9 -7 -10 45 -25 84 -24 47 1 72
14 67 35 -5 17 -3 17 11 6 12 -10 14 -10 8 0 -4 6 -3 12 3 12 5 0 8 9 6 20 -2
11 0 20 5 20 5 0 7 7 4 15 -4 8 -10 13 -14 10 -4 -2 -7 5 -6 17 1 21 -9 26
-66 33 -16 2 -28 -1 -28 -7 0 -5 -4 -7 -9 -3 -15 9 -24 -14 -23 -61 1 -27 -3
-42 -9 -39 -5 4 -7 10 -4 15 3 4 0 10 -7 12 -7 3 -13 17 -14 32 0 18 3 25 11
22 8 -3 15 7 19 25 3 17 10 28 16 24 5 -3 10 -1 10 5 0 7 8 9 21 5 16 -6 20
-4 13 6 -7 12 -5 12 9 0 14 -11 18 -11 23 3 6 15 8 15 21 -1 8 -10 11 -11 7
-3 -7 13 -5 13 9 1 11 -9 17 -10 17 -2 0 6 5 11 11 11 5 0 7 -5 3 -12 -5 -8
-2 -9 9 -5 22 8 78 -3 71 -14 -3 -5 0 -9 6 -9 6 0 9 -4 6 -9 -3 -4 5 -7 19 -6
15 2 30 -5 41 -20 10 -13 21 -22 26 -19 4 3 8 -4 8 -16 0 -12 4 -19 8 -16 9 5
37 -10 38 -21 2 -26 17 -63 25 -63 5 0 9 -7 9 -16 0 -8 7 -22 15 -31 8 -8 13
-19 10 -24 -4 -5 -1 -9 5 -9 7 0 10 -7 7 -15 -4 -8 -2 -17 3 -20 6 -4 10 -11
10 -16 0 -6 -5 -7 -11 -3 -6 3 -4 -8 5 -24 18 -34 20 -46 8 -38 -4 2 -7 -8 -6
-22 1 -15 -3 -32 -8 -39 -5 -7 -5 -14 2 -18 5 -3 10 -11 10 -16 0 -6 -4 -7
-10 -4 -6 3 -7 -1 -4 -9 3 -9 1 -16 -4 -16 -6 0 -9 -9 -7 -20 2 -12 -5 -27
-19 -37 -12 -10 -23 -21 -24 -25 -1 -5 -2 -9 -3 -10 0 -2 -2 -11 -4 -22 -5
-26 -43 -59 -60 -52 -8 3 -14 2 -14 -2 4 -27 -5 -42 -33 -51 -18 -7 -34 -12
-35 -11 -2 0 -12 -9 -23 -20 -11 -11 -26 -20 -34 -20 -8 0 -16 -4 -18 -10 -1
-5 -30 -11 -64 -13 -33 -2 -67 -7 -74 -12 -8 -5 -11 -4 -6 3 4 7 -8 9 -39 7
-24 -2 -47 0 -49 4 -3 5 -17 7 -31 5 -15 -1 -28 3 -31 11 -3 8 -12 11 -20 8
-9 -3 -14 0 -12 8 2 8 -3 13 -9 12 -7 -2 -13 2 -13 9 0 6 -3 9 -6 5 -8 -8 -76
28 -100 53 -10 11 -34 35 -51 52 -18 17 -33 38 -33 45 0 8 -4 11 -10 8 -5 -3
-10 0 -10 8 0 8 -8 21 -18 30 -10 10 -18 27 -17 40 1 12 -3 25 -8 29 -6 3 -12
19 -15 35 -2 15 -7 33 -13 39 -27 32 -27 266 0 298 7 9 7 16 -1 24 -8 8 -7 13
5 17 9 4 13 13 10 21 -3 7 2 21 11 30 9 8 14 20 10 25 -3 5 2 12 10 15 9 3 16
16 16 29 0 12 7 28 15 35 8 7 15 17 15 22 0 5 13 23 30 40 16 16 30 36 30 43
0 7 14 16 31 20 17 4 28 9 25 12 -11 11 63 63 89 63 8 0 15 5 15 11 0 5 4 7
10 4 5 -3 10 -1 10 4 0 6 7 11 16 11 8 0 22 7 31 15 11 11 19 13 28 5 9 -7 16
-6 25 5 7 8 17 12 22 9 6 -4 14 -1 18 6 4 7 29 15 56 18 26 3 59 11 73 18 13
7 29 10 34 7 8 -5 162 -8 182 -3 25 6 46 -1 39 -12 -6 -10 -5 -10 7 -1 22 18
139 19 139 1 0 -4 20 -8 44 -8 25 0 47 -4 51 -10 3 -5 13 -6 21 -3 9 3 20 0
24 -7 7 -11 12 -11 26 1 11 9 15 9 10 2 -4 -7 -4 -13 1 -14 50 -4 88 -11 93
-17 3 -4 14 -8 25 -8 12 0 19 -5 17 -14 -2 -8 -1 -12 3 -8 8 8 68 -12 77 -26
6 -8 8 -8 8 0 0 8 12 6 35 -4 19 -9 35 -20 35 -25 0 -4 5 -5 10 -2 6 3 10 -1
10 -10 0 -10 6 -15 13 -12 8 3 27 -8 44 -23 17 -16 33 -27 36 -24 2 2 12 -7
21 -21 9 -14 21 -25 26 -25 17 0 49 -33 43 -44 -3 -6 -3 -8 1 -4 8 7 56 -35
56 -49 0 -5 9 -14 20 -21 12 -7 17 -18 13 -29 -4 -10 -2 -14 4 -10 11 7 28
-20 24 -37 -1 -4 6 -14 16 -22 10 -7 14 -14 9 -14 -4 0 -1 -11 8 -25 9 -14 14
-31 10 -37 -5 -7 -2 -9 7 -6 9 4 15 -1 16 -11 2 -26 20 -113 31 -148 7 -20 7
-35 1 -38 -5 -4 -5 -14 1 -26 7 -11 7 -19 1 -19 -5 0 -6 -12 -2 -27 6 -20 3
-31 -8 -41 -13 -10 -13 -11 -1 -7 12 4 15 -2 13 -27 -1 -18 -2 -46 -2 -61 -1
-16 -5 -26 -10 -23 -5 3 -10 -18 -11 -47 -2 -71 -2 -77 -9 -77 -4 0 -6 -16 -5
-35 1 -19 -2 -32 -7 -29 -9 5 -12 -4 -12 -38 0 -10 -4 -18 -9 -18 -5 0 -7 -4
-3 -9 3 -5 1 -12 -5 -16 -5 -3 -10 -17 -10 -31 0 -13 -6 -24 -12 -24 -9 0 -8
-4 2 -10 8 -5 10 -10 4 -10 -11 0 -29 -46 -26 -63 1 -4 -4 -10 -12 -13 -8 -3
-12 -13 -9 -25 4 -14 1 -18 -10 -14 -11 5 -14 -1 -12 -24 1 -17 -2 -31 -7 -31
-5 0 -6 -6 -2 -12 4 -7 3 -10 -1 -5 -5 4 -15 -7 -22 -24 -7 -17 -17 -28 -23
-24 -7 4 -6 14 2 28 7 12 11 25 10 30 -1 4 3 7 8 7 6 0 10 16 10 35 0 19 5 35
10 35 6 0 10 5 10 11 0 5 -6 7 -13 3 -9 -6 -9 -5 0 7 10 12 10 18 0 28 -9 10
-9 12 3 9 10 -2 15 4 14 20 -1 12 4 22 10 22 6 0 11 16 12 36 0 20 5 39 10 42
11 8 13 353 2 346 -4 -3 -8 -2 -9 3 -3 32 -11 59 -19 61 -6 2 -10 12 -10 23 0
10 -4 19 -9 19 -8 0 -26 47 -23 62 1 4 -5 5 -12 2 -8 -3 -17 3 -20 14 -7 21
-56 71 -56 57 0 -5 -11 6 -25 25 -14 19 -25 30 -25 26 0 -5 -6 -3 -13 3 -8 6
-17 8 -20 4 -4 -3 -9 1 -13 10 -4 10 -15 14 -35 12 -16 -2 -27 0 -25 4 3 4 -6
13 -19 19 -18 8 -25 9 -25 1 0 -8 -5 -7 -15 1 -12 10 -19 10 -27 2 -7 -7 -19
-12 -27 -12 -14 0 -14 1 -1 10 22 15 -18 8 -47 -8 -12 -7 -30 -14 -40 -16 -41
-8 -83 -31 -83 -46 0 -13 -1 -13 -10 0 -8 12 -10 11 -10 -6 0 -14 -8 -24 -21
-27 -12 -3 -18 -10 -14 -16 3 -6 0 -11 -7 -11 -8 0 -14 -8 -15 -17 -4 -43 -13
-78 -23 -81 -5 -2 -8 -8 -4 -13 3 -5 1 -9 -4 -9 -5 0 -8 -10 -6 -22 1 -13 3
-27 3 -31 1 -5 5 -6 10 -3 5 3 12 -19 15 -48 5 -33 13 -56 22 -60 8 -3 13 -9
12 -14 -3 -8 87 -101 97 -102 3 0 23 0 46 0 24 0 38 -4 34 -10 -4 -6 15 -9 49
-8 30 1 52 6 50 10 -3 4 5 9 18 10 13 0 29 2 37 2 8 1 18 10 22 21 4 11 8 16
8 12 1 -4 7 -2 15 5 8 7 11 18 8 23 -4 6 -7 17 -7 25 0 12 -18 15 -100 16 -55
0 -111 4 -125 8 -28 10 -82 61 -73 70 3 3 -2 8 -11 12 -9 4 -16 17 -16 34 0
16 -5 32 -11 36 -8 5 -8 8 0 13 6 4 12 24 13 44 2 26 7 36 16 32 7 -2 12 1 10
8 -2 7 7 22 20 35 12 12 22 19 22 16 0 -3 7 2 16 10 8 9 27 16 40 16 14 0 23
4 20 8 -3 5 21 10 52 11 62 2 159 -29 154 -49 -1 -6 2 -9 8 -5 6 3 17 -1 26
-9 8 -9 22 -16 30 -16 8 0 12 -4 9 -10 -3 -5 3 -15 15 -22 11 -7 20 -21 20
-31 0 -10 5 -15 10 -12 6 3 10 1 10 -5 0 -6 5 -8 12 -4 8 5 9 2 5 -9 -3 -10
-2 -17 3 -17 6 0 10 -9 10 -21 0 -13 4 -18 12 -13 7 4 8 3 4 -4 -4 -6 0 -25 9
-42 8 -16 12 -30 8 -30 -5 0 -1 -5 7 -10 10 -6 11 -10 3 -10 -7 0 -13 -7 -13
-15 0 -8 5 -15 11 -15 8 0 8 -4 0 -13 -8 -10 -7 -17 1 -25 7 -7 12 -35 13 -62
1 -39 -2 -50 -15 -50 -12 0 -12 -2 -1 -9 10 -6 10 -10 1 -16 -8 -5 -6 -13 7
-28 15 -17 16 -20 2 -14 -15 5 -15 2 -5 -24 7 -20 7 -32 1 -37 -6 -4 -12 -16
-13 -27 -2 -11 -9 -23 -15 -27 -9 -6 -8 -8 1 -8 7 0 10 -5 7 -11 -4 -5 -8 -22
-10 -36 -1 -14 -6 -28 -11 -32 -5 -3 -9 -19 -8 -36 0 -16 -7 -36 -15 -43 -9
-8 -10 -11 -3 -7 13 7 17 -17 5 -29 -10 -9 -12 -86 -3 -86 3 0 11 5 18 12 8 8
12 8 12 1 0 -16 -31 -25 -45 -13 -9 7 -12 -4 -13 -46 0 -33 -7 -65 -17 -81
-10 -14 -13 -23 -8 -20 5 4 10 0 10 -8 0 -8 -2 -13 -5 -11 -7 7 -42 -33 -42
-49 0 -8 -4 -15 -8 -15 -5 0 -9 -6 -10 -12 -1 -29 -12 -59 -24 -73 -36 -40
-38 -43 -25 -48 9 -4 9 -6 0 -6 -7 -1 -13 -7 -13 -14 0 -21 -35 -88 -43 -81
-3 4 -5 -3 -2 -15 2 -11 -1 -21 -7 -21 -5 0 -8 -7 -4 -15 3 -8 -2 -19 -12 -24
-9 -5 -14 -13 -10 -17 4 -4 -2 -20 -13 -35 -11 -16 -17 -29 -13 -29 3 0 1 -7
-6 -15 -7 -8 -10 -15 -7 -15 4 0 0 -18 -8 -40 -8 -22 -11 -40 -7 -40 4 0 -1
-5 -10 -10 -10 -6 -16 -22 -16 -41 1 -17 -4 -34 -9 -37 -12 -8 -22 -89 -26
-197 -3 -79 -12 -115 -31 -115 -10 0 -14 24 -15 91 -2 75 1 93 15 104 13 9 14
14 4 20 -9 6 -11 4 -5 -5 6 -9 4 -11 -5 -5 -10 6 -9 11 5 22 16 11 14 17 -6
15 -3 -1 -6 5 -6 13 0 8 4 12 9 9 4 -3 8 1 8 10 0 8 -6 17 -12 19 -8 3 -6 6 5
6 9 1 17 5 17 11 0 5 -8 7 -17 4 -15 -5 -16 -4 -3 5 8 6 15 16 15 23 1 7 7 12
14 10 8 -2 11 3 8 12 -4 9 -2 18 3 21 6 4 10 17 10 30 0 13 6 26 13 28 8 4 8
6 -2 6 -11 1 -10 5 5 16 13 10 14 13 3 10 -10 -4 -16 0 -16 9 0 8 4 13 8 11 3
-3 13 3 20 12 10 11 10 14 2 9 -9 -5 -12 0 -11 18 1 15 8 26 15 26 6 0 10 9 8
20 -2 11 1 19 7 17 6 -1 12 14 13 33 1 19 3 37 4 40 7 14 6 92 -1 96 -5 3 -5
11 -1 17 9 16 13 58 4 53 -3 -3 -7 4 -7 15 0 10 3 19 6 19 10 0 6 155 -5 162
-6 5 -5 8 4 8 9 0 10 4 4 12 -6 7 -9 28 -8 46 1 21 -3 32 -12 32 -8 0 -11 5
-8 11 4 6 -1 17 -11 24 -11 8 -15 15 -10 15 4 0 1 12 -9 26 -9 15 -13 24 -8
21 5 -4 10 0 10 8 0 8 -4 12 -9 9 -4 -3 -8 4 -8 15 0 12 -5 21 -11 21 -5 0 -7
5 -4 10 3 6 -1 10 -9 10 -9 0 -16 9 -16 21 0 11 -4 17 -10 14 -5 -3 -10 1 -10
9 0 8 -5 18 -12 22 -7 5 -8 3 -3 -7 5 -8 -1 -5 -13 5 -12 11 -22 16 -22 13 0
-4 -11 -2 -25 3 -15 6 -26 6 -30 -1 -4 -5 -11 -7 -16 -4 -5 4 -9 1 -9 -5 0 -6
-4 -9 -9 -5 -5 3 -12 -3 -14 -12 -4 -15 -5 -15 -6 -2 -1 15 -35 25 -98 31 -7
1 -10 5 -7 10 12 19 -87 11 -133 -12 -21 -10 -41 -16 -45 -13 -5 2 -8 -2 -8
-9 0 -10 -3 -9 -9 1 -8 12 -12 10 -22 -12 -6 -14 -17 -24 -22 -20 -6 4 -8 0
-4 -10 3 -9 2 -16 -3 -14 -5 1 -16 -7 -25 -18 -9 -11 -13 -13 -9 -5 4 8 3 11
-1 7 -14 -12 -15 -40 -2 -56 9 -12 9 -13 0 -7 -8 4 -13 1 -13 -8 0 -9 4 -16
10 -16 5 0 9 -3 9 -7 -3 -21 2 -33 16 -33 8 0 15 -4 15 -10 0 -5 5 -10 11 -10
5 0 7 5 4 10 -5 9 1 12 21 9 3 0 15 10 26 23 11 13 24 22 29 21 5 -2 9 2 9 7
0 6 7 10 15 10 8 0 15 4 15 8 0 4 12 9 28 10 15 1 37 4 50 6 12 3 22 0 22 -5
0 -6 9 -7 21 -4 26 8 82 -18 107 -50 11 -14 24 -25 30 -25 9 0 27 -47 24 -62
-1 -5 3 -8 8 -8 6 0 10 -7 10 -15 0 -7 8 -18 17 -24 10 -5 15 -13 11 -17 -4
-4 0 -13 10 -21 9 -8 11 -11 3 -7 -10 5 -12 3 -5 -7 12 -19 15 -36 21 -91 3
-27 9 -48 14 -48 5 0 9 -71 9 -160 0 -100 -4 -160 -10 -160 -5 0 -10 -24 -10
-54 0 -30 -4 -57 -8 -60 -5 -3 -7 -26 -6 -53 2 -26 -2 -53 -8 -60 -7 -9 -7
-17 2 -29 11 -12 11 -15 -1 -12 -12 2 -14 -22 -15 -137 -1 -150 2 -169 20
-158 6 4 5 -1 -3 -10 -11 -13 -11 -17 -1 -17 8 0 10 -3 7 -6 -3 -4 -2 -16 4
-27 6 -10 7 -17 2 -14 -6 4 -5 -8 1 -28 6 -18 14 -31 18 -29 7 5 13 -27 9 -49
-1 -5 3 -6 9 -2 5 3 10 0 10 -8 0 -8 7 -18 16 -21 8 -3 13 -10 10 -14 -6 -11
39 -64 48 -55 3 3 6 0 6 -9 0 -18 44 -61 53 -51 4 3 7 1 7 -5 0 -7 3 -11 8
-11 19 3 33 -2 27 -11 -3 -6 1 -10 9 -10 9 0 16 -5 16 -11 0 -6 7 -9 15 -6 8
4 17 2 20 -3 4 -6 17 -10 30 -10 13 0 27 -5 30 -10 4 -7 11 -7 18 -2 14 11 47
12 47 2 0 -7 6 -9 67 -13 30 -3 44 1 48 11 4 12 8 12 22 1 12 -10 14 -10 9 -1
-4 6 -2 12 3 12 6 0 11 -5 11 -11 0 -5 5 -7 12 -3 17 11 118 11 118 0 0 -4 7
-3 15 4 10 9 15 9 15 1 0 -6 5 -11 11 -11 5 0 8 4 5 8 -6 11 25 9 43 -3 10 -5
12 -4 7 3 -4 7 -2 12 3 12 6 0 11 -5 11 -11 0 -5 5 -7 12 -3 17 11 118 11 118
0 0 -4 7 -3 15 4 10 9 15 9 15 1 0 -6 5 -11 11 -11 5 0 8 4 5 8 -6 11 25 9 43
-3 10 -5 12 -4 7 3 -4 7 -2 12 3 12 6 0 11 -5 11 -11 0 -5 5 -7 12 -3 17 11
118 11 118 0 0 -4 7 -3 15 4 10 9 15 9 15 1 0 -6 5 -11 11 -11 5 0 8 4 5 8 -6
11 25 9 43 -3 10 -5 12 -4 7 3 -4 7 -2 12 3 12 6 0 11 -5 11 -11 0 -5 5 -7 12
-3 17 11 118 11 118 0 0 -4 7 -3 15 4 10 9 15 9 15 1 0 -6 5 -11 11 -11 5 0 8
3 6 8 -3 4 21 7 53 7 32 0 56 -3 53 -7 -2 -5 1 -8 6 -8 6 0 11 4 11 8 0 5 15
8 34 8 19 0 32 -4 30 -8 -3 -5 0 -8 5 -8 6 0 11 4 11 8 0 5 15 8 34 8 19 0 32
-4 30 -8 -3 -5 0 -8 5 -8 6 0 11 4 11 8 0 5 15 8 34 8 19 0 32 -4 30 -8 -3 -5
0 -8 5 -8 6 0 11 4 11 8 0 5 15 8 34 8 19 0 32 -4 30 -8 -3 -5 0 -8 5 -8 6 0
11 4 11 8 0 5 15 8 34 8 19 0 32 -4 30 -8 -3 -5 0 -8 5 -8 6 0 11 4 11 8 0 5
15 8 34 8 19 0 32 -4 30 -8 -3 -5 0 -8 5 -8 6 0 11 4 11 8 0 5 15 8 34 8 19 0
32 -4 30 -8 -3 -5 -1 -8 5 -8 5 0 12 6 15 13 5 9 7 9 12 -1 3 -6 11 -9 17 -5
16 10 117 10 117 -1 0 -4 7 -3 15 4 10 9 15 9 15 1 0 -6 5 -11 11 -11 5 0 8 4
5 8 -6 11 25 9 43 -3 10 -5 12 -4 7 3 -4 7 -2 12 3 12 6 0 11 -5 11 -11 0 -5
5 -7 12 -3 17 11 118 11 118 0 0 -4 7 -3 15 4 10 9 15 9 15 1 0 -6 5 -11 11
-11 5 0 8 4 5 8 -6 11 25 9 43 -3 10 -5 12 -4 7 3 -4 7 -2 12 3 12 6 0 11 -5
11 -11 0 -5 5 -7 12 -3 17 11 118 11 118 0 0 -4 7 -3 15 4 11 9 15 9 15 1 0
-7 5 -9 12 -5 16 10 118 11 118 1 0 -5 5 -5 11 -2 6 4 28 8 49 10 22 2 43 6
49 9 5 4 12 2 15 -3 3 -4 24 -5 45 -1 27 5 42 3 45 -4 2 -6 5 -6 5 -1 1 6 32
10 74 9 83 0 109 4 101 18 -4 6 2 6 14 -1 23 -12 92 -12 92 1 0 4 10 8 23 8
13 0 28 5 35 12 7 7 12 8 12 4 0 -5 7 -3 15 4 8 7 21 10 29 7 8 -3 17 -1 20 6
3 9 5 8 5 -1 1 -7 5 -11 9 -8 5 3 40 7 78 10 41 3 68 9 66 15 -1 6 14 11 34
11 19 0 33 4 30 8 -2 4 4 14 16 21 11 7 17 8 14 3 -3 -6 5 -9 19 -8 14 0 27 6
29 13 3 7 16 10 30 7 15 -2 26 0 26 6 0 5 9 10 21 10 11 0 27 7 36 15 8 8 19
13 24 9 5 -3 12 1 15 9 3 8 16 13 30 11 14 -1 28 4 33 14 5 10 12 16 15 15 3
-2 8 -2 11 -2 3 1 10 3 15 4 6 1 18 3 28 4 15 1 15 3 2 11 -12 8 -9 10 13 10
16 0 26 4 22 10 -3 6 1 7 9 4 9 -4 18 1 22 10 3 9 10 13 15 10 5 -3 9 -1 9 4
0 6 12 13 27 17 15 3 32 14 38 22 7 9 23 18 36 20 17 2 20 0 10 -6 -7 -5 -10
-14 -7 -20 4 -6 0 -11 -8 -11 -9 0 -16 -5 -16 -11 0 -5 -4 -7 -10 -4 -5 3 -10
-1 -10 -9 0 -9 -4 -16 -8 -16 -10 0 -8 -27 3 -54 6 -13 3 -23 -10 -32 -23 -17
-28 -44 -9 -44 8 0 14 -6 14 -14 0 -8 5 -18 12 -22 7 -5 8 -3 3 6 -5 9 -4 11
3 6 7 -4 12 -14 12 -22 0 -10 5 -12 13 -8 9 6 9 5 0 -7 -13 -16 4 -49 26 -49
6 0 11 -4 11 -10 0 -5 11 -10 25 -10 14 0 25 -5 25 -11 0 -6 7 -8 16 -5 8 3
13 2 10 -3 -3 -5 2 -12 11 -16 10 -3 19 -1 21 4 2 6 10 11 18 11 8 0 14 3 14
8 0 8 52 8 67 -1 19 -12 51 21 46 47 -5 22 -2 25 27 24 18 -1 36 5 41 13 11
18 11 56 0 63 -5 4 -5 20 2 41 11 38 -6 115 -27 115 -8 0 -8 2 0 8 17 11 -27
48 -59 49 -45 2 -48 3 -42 13 3 5 -6 12 -20 16 -13 3 -23 9 -20 13 2 4 -2 8
-10 8 -8 0 -11 -5 -8 -11 4 -6 0 -6 -8 1 -12 10 -18 9 -28 -6 -15 -20 -48 -17
-48 4 0 8 5 11 10 8 6 -4 8 1 4 11 -4 10 -3 15 3 11 6 -3 10 3 10 14 0 14 5
19 15 15 8 -4 15 -1 15 6 0 7 7 10 16 6 8 -3 12 -2 9 4 -3 6 1 13 9 16 9 3 16
12 16 19 0 8 5 17 12 21 7 5 8 3 3 -6 -5 -9 -4 -11 3 -6 7 4 12 14 12 22 0 8
6 14 14 14 7 0 22 12 32 27 10 16 33 43 51 60 18 18 33 40 33 48 0 9 7 18 15
21 8 4 15 13 15 21 0 9 10 24 23 35 12 11 22 23 23 26 7 43 19 75 30 79 7 2
10 12 7 20 -4 11 -2 14 5 9 7 -4 12 -1 13 6 0 7 2 23 3 35 2 15 -3 23 -13 24
-12 0 -10 3 4 8 11 5 25 6 30 3 6 -3 2 4 -9 16 -14 17 -16 25 -7 35 6 8 7 18
3 22 -4 5 1 5 11 2 11 -4 17 -1 18 8 2 19 4 25 14 48 4 10 8 32 9 50 1 18 5
38 9 44 5 8 3 13 -5 13 -9 1 -8 4 3 10 17 10 15 55 -2 65 -12 8 1 36 15 29 6
-3 3 1 -7 9 -15 12 -15 15 -3 20 12 5 13 12 4 37 -5 17 -8 34 -4 37 3 3 1 12
-6 20 -6 7 -8 16 -4 20 3 3 6 1 6 -5 0 -7 5 -12 10 -12 7 0 7 7 -1 21 -9 17
-8 25 5 38 9 8 22 16 29 17 6 0 20 2 30 2 10 1 16 6 13 10 -3 4 9 7 26 6 17
-1 37 3 44 10 7 7 23 12 36 11 12 -1 26 3 30 9 5 8 8 7 8 -1 0 -7 5 -13 11
-13 5 0 7 5 4 10 -4 6 5 10 19 10 14 0 26 5 26 10 0 6 7 10 16 10 9 0 12 5 8
12 -5 8 -2 9 9 5 10 -3 17 -2 17 4 0 6 5 7 10 4 6 -3 13 1 16 10 4 9 13 14 20
11 8 -3 14 -1 14 5 0 6 5 7 10 4 6 -3 10 0 10 8 0 17 27 30 42 20 7 -3 8 -1 4
5 -4 7 -2 12 5 12 7 0 10 3 7 6 -9 8 41 54 58 54 8 0 12 5 9 10 -3 6 1 10 10
10 12 0 15 5 11 17 -4 10 -4 14 0 11 7 -8 74 68 74 84 0 5 4 7 9 4 5 -3 11 8
15 25 3 17 10 28 16 24 5 -3 10 2 10 12 0 11 5 24 12 31 9 9 9 12 -1 12 -9 0
-7 5 4 16 9 9 14 23 11 30 -3 8 1 14 8 14 17 0 26 22 26 59 0 15 3 31 7 35 9
9 13 37 4 32 -4 -3 -7 4 -7 14 0 10 4 16 8 14 4 -3 8 -1 8 5 0 5 -6 12 -12 14
-10 4 -10 8 1 15 12 8 12 13 2 25 -8 10 -9 17 -1 22 7 4 7 13 -1 27 -8 15 -8
19 0 14 6 -4 11 -3 11 3 0 5 -6 12 -12 14 -10 4 -10 8 1 15 12 9 12 13 2 26
-8 9 -10 16 -7 16 4 0 2 9 -4 20 -8 14 -8 20 0 20 6 0 4 12 -5 30 -9 17 -20
30 -26 30 -6 0 -7 5 -4 10 4 6 1 18 -7 27 -9 12 -9 15 -1 9 9 -5 11 -2 7 8 -3
9 -10 13 -15 10 -5 -3 -9 4 -9 16 0 13 -4 19 -12 14 -7 -5 -8 -3 -4 5 5 7 0
21 -10 32 -9 10 -13 19 -8 19 5 0 1 5 -9 11 -9 6 -15 14 -12 20 4 5 1 9 -5 9
-13 0 -30 17 -45 44 -6 10 -13 17 -16 15 -3 -2 -24 17 -48 43 -24 26 -48 45
-52 42 -5 -3 -6 3 -2 12 5 13 3 15 -7 9 -10 -6 -12 -4 -7 8 3 9 0 23 -8 30 -7
8 -15 29 -17 48 -1 19 -7 37 -12 41 -13 9 -15 69 -3 61 6 -4 8 1 4 11 -4 10
-4 23 0 29 4 7 9 23 11 36 3 25 24 51 41 51 6 0 10 4 8 9 -3 13 44 51 64 51
10 0 21 5 24 10 3 6 12 10 18 10 7 0 6 -4 -3 -10 -13 -8 -13 -10 2 -10 9 0 20
5 23 10 3 6 12 10 18 10 7 0 6 -4 -3 -10 -13 -9 -13 -10 1 -10 8 0 21 6 28 12
10 11 11 9 5 -6 -5 -13 -4 -17 4 -12 16 10 63 -4 55 -17 -4 -6 0 -8 11 -4 9 4
14 3 11 -2 -3 -5 -1 -12 5 -16 5 -3 10 -15 10 -26 0 -11 4 -17 10 -14 10 6 12
0 12 -50 1 -62 -2 -76 -13 -70 -6 4 -9 1 -8 -6 3 -18 -21 -69 -33 -69 -4 0 -8
8 -9 18 0 14 -2 14 -9 -3 -20 -51 -124 10 -126 73 0 17 4 32 8 32 4 0 7 3 7 8
-5 28 -1 30 61 34 33 2 37 7 18 26 -19 19 -76 15 -95 -7 -9 -11 -20 -18 -25
-15 -4 3 -5 -2 -2 -10 3 -9 2 -16 -4 -16 -5 0 -9 -12 -9 -26 0 -15 -7 -30 -14
-35 -10 -6 -11 -9 -1 -9 6 0 12 -7 12 -16 0 -9 10 -25 23 -36 12 -11 15 -16 7
-12 -13 7 -13 5 -1 -9 7 -9 17 -14 22 -11 5 3 9 -2 9 -10 0 -23 145 -23 154 0
3 8 10 12 16 9 5 -3 10 1 10 9 0 9 7 16 15 16 19 0 50 58 46 88 -1 12 2 22 7
22 18 0 21 29 5 45 -8 9 -13 18 -10 21 9 10 -15 78 -33 94 -48 40 -57 47 -70
52 -8 3 -19 6 -24 6 -5 0 -12 5 -15 11 -4 6 -30 11 -58 12 -52 2 -62 13 -33
36 8 6 18 9 22 7 5 -3 8 4 8 15 0 11 7 27 16 35 8 9 13 16 9 16 -3 0 -1 9 5
20 6 11 14 18 18 16 7 -4 13 30 14 74 1 8 5 21 11 28 6 8 5 12 -4 12 -12 0
-12 2 0 9 9 6 10 11 2 15 -6 4 -11 13 -11 19 0 7 4 6 10 -3 8 -13 10 -12 10 3
0 9 -4 17 -8 17 -4 0 -9 14 -10 31 -1 17 -7 39 -12 49 -5 9 -6 20 -3 24 3 3 1
6 -5 6 -6 0 -14 9 -17 20 -4 11 -11 18 -16 15 -5 -3 -6 1 -3 9 4 9 -1 18 -10
22 -9 3 -16 13 -16 22 0 8 -3 12 -6 9 -4 -3 -22 9 -41 28 -20 20 -40 32 -46
28 -7 -4 -5 2 3 12 14 17 13 18 -7 13 -13 -4 -23 -2 -23 3 0 6 -6 9 -12 8 -27
-3 -39 1 -32 13 4 6 3 8 -3 5 -5 -3 -23 1 -39 10 -21 11 -59 16 -134 17 -93 1
-107 -1 -125 -19 -11 -11 -27 -21 -35 -23 -26 -6 -100 -45 -100 -54 0 -4 -10
-8 -22 -8 -19 0 -20 -2 -8 -10 13 -8 12 -10 -2 -10 -10 0 -20 1 -22 3 -8 5
-76 -75 -76 -89 0 -8 -5 -12 -10 -9 -6 4 -10 3 -9 -2 4 -24 -3 -43 -16 -43
-12 0 -15 -9 -13 -37 1 -22 -3 -38 -10 -41 -7 -2 -13 -22 -13 -45 -1 -23 -4
-55 -8 -72 -4 -16 -4 -43 0 -58 5 -16 9 -51 10 -77 2 -27 6 -47 10 -44 4 2 10
0 14 -6 3 -5 -2 -10 -12 -11 -10 0 -13 -3 -5 -6 6 -2 12 -16 12 -29 0 -13 5
-24 10 -24 6 0 10 -10 10 -22 0 -12 3 -18 7 -15 7 7 33 -38 33 -58 0 -7 7 -16
16 -19 9 -3 12 -11 8 -18 -4 -7 -4 -10 0 -6 10 8 40 -20 49 -44 4 -10 14 -18
23 -18 10 0 15 -3 12 -6 -6 -5 41 -58 52 -59 16 -2 62 -34 50 -35 -13 0 -13
-1 0 -10 8 -5 10 -10 5 -10 -6 0 -17 6 -24 12 -11 11 -13 10 -8 -3 3 -9 0 -16
-9 -16 -7 0 -11 3 -9 7 2 4 -11 6 -30 6 -18 -1 -31 -5 -28 -9 3 -5 -10 -7 -28
-6 -23 2 -33 -1 -32 -9 2 -7 -7 -12 -21 -12 -14 0 -31 -6 -39 -14 -11 -11 -17
-12 -27 -3 -10 9 -11 9 -6 0 4 -8 1 -13 -7 -13 -8 0 -29 -13 -47 -30 -18 -16
-34 -30 -37 -30 -11 0 -61 -55 -57 -62 3 -4 -2 -8 -10 -8 -9 0 -15 -3 -15 -7
3 -21 -2 -33 -16 -33 -9 0 -12 -6 -8 -16 3 -8 -3 -25 -15 -37 -11 -12 -18 -30
-17 -39 2 -10 -1 -18 -5 -18 -15 0 -38 -58 -28 -68 6 -6 6 -12 -1 -16 -14 -9
-15 -163 -1 -168 5 -1 10 -20 12 -40 2 -31 4 -35 17 -25 12 9 13 9 8 0 -5 -7
-1 -24 8 -37 9 -14 14 -30 11 -35 -4 -5 -2 -12 4 -16 5 -3 10 -12 10 -18 0 -8
-3 -8 -9 1 -4 7 -12 12 -17 11 -21 -4 -28 2 -14 11 11 7 11 10 2 10 -7 0 -25
11 -40 25 -15 14 -31 25 -36 25 -5 0 -14 7 -20 14 -6 8 -18 16 -26 18 -18 4
-35 19 -43 38 -4 11 -6 11 -6 2 -1 -10 -5 -10 -17 2 -8 9 -27 16 -40 16 -17 0
-23 4 -18 12 5 8 2 9 -10 5 -11 -4 -28 1 -43 13 -14 11 -29 17 -34 14 -5 -3
-9 1 -9 8 0 13 -15 17 -62 21 -10 1 -18 5 -18 9 0 4 -7 5 -15 2 -8 -4 -15 -1
-15 5 0 6 -7 11 -16 11 -9 0 -30 10 -47 22 -17 12 -28 17 -24 12 3 -6 0 -11
-7 -11 -9 0 -12 7 -8 16 5 14 3 14 -11 2 -14 -11 -17 -11 -17 0 -1 9 -5 8 -15
-5 -11 -15 -15 -16 -15 -5 0 14 -104 58 -122 51 -5 -1 -8 3 -8 8 0 6 -5 10
-11 10 -5 0 -7 -6 -4 -12 4 -7 1 -6 -7 2 -7 9 -23 15 -36 14 -13 -1 -30 5 -37
13 -20 19 -20 19 -38 4 -11 -8 -17 -9 -17 -3 0 7 -7 9 -17 5 -11 -5 -14 -3 -9
6 6 9 1 12 -15 11 -44 -4 -70 0 -64 9 3 5 1 12 -4 15 -5 4 -13 1 -17 -5 -5 -8
-3 -9 6 -4 9 5 11 4 6 -3 -5 -9 -13 -9 -28 -1 -15 8 -19 8 -14 0 10 -15 -3
-14 -19 3 -8 7 -27 12 -43 10 -17 -2 -35 2 -40 9 -6 7 -32 12 -61 11 -28 0
-48 3 -46 7 3 4 -2 9 -10 13 -8 3 -15 0 -15 -7 0 -9 -3 -8 -9 1 -11 18 -15 19
-33 5 -8 -7 -18 -10 -22 -6 -12 12 -136 24 -136 12 0 -8 -33 -5 -49 6 -9 5
-12 4 -7 -3 3 -6 1 -14 -5 -18 -7 -4 -9 -3 -5 4 10 16 -4 21 -70 23 -32 1 -62
7 -65 12 -4 6 -129 9 -316 9 l-309 0 -3 41 c-1 22 -4 44 -7 49 -3 4 -1 8 4 8
5 0 8 12 6 28 -6 41 -6 133 -1 139 3 2 1 18 -3 34 -5 16 -5 31 -2 33 4 2 6 22
4 43 -4 53 -3 205 2 210 2 2 0 20 -4 39 -4 18 -4 34 0 34 4 0 6 12 4 28 -6 40
-6 133 -1 138 3 3 1 21 -3 40 -4 18 -4 34 0 34 4 0 6 12 4 28 -6 40 -6 133 -1
138 3 3 1 21 -3 40 -4 18 -4 34 0 34 4 0 6 12 4 28 -6 41 -6 133 -1 139 3 2 1
17 -3 33 -4 16 -5 31 -2 35 9 8 11 35 4 35 -7 0 -6 93 2 142 2 15 1 29 -2 29
-37 7 -53 5 -48 -7 3 -8 -1 -14 -9 -14 -7 0 -17 -9 -20 -20 -3 -11 -13 -20
-21 -20 -8 0 -12 -4 -9 -10 3 -6 -4 -10 -17 -10 -18 0 -20 -2 -8 -10 9 -6 10
-10 3 -10 -6 0 -19 -3 -29 -7 -13 -5 -15 -3 -9 8 4 8 -5 -1 -22 -18 -23 -26
-32 -30 -42 -20 -10 9 -11 8 -6 -5 5 -12 2 -18 -8 -18 -33 0 -25 18 17 41 25
13 42 27 40 31 -3 4 2 8 10 8 9 0 16 7 16 16 0 8 4 13 9 10 5 -3 12 1 15 10 4
9 13 14 22 10 8 -3 13 -2 9 3 -3 5 1 12 7 14 10 4 10 6 1 6 -7 1 3 17 23 36
19 19 32 35 28 35 -3 0 0 7 7 16 8 9 14 24 14 33 0 9 6 15 13 13 8 -1 11 2 8
7 -4 5 -2 12 4 16 6 4 7 12 3 18 -4 6 -6 27 -5 47 4 92 3 130 -3 139 -3 6 -2
11 3 11 5 0 8 12 6 28 -2 15 -4 51 -4 80 1 49 1 64 -1 95 0 6 2 24 4 39 2 16
-1 32 -7 37 -18 13 -66 19 -66 8 0 -6 -7 -2 -15 9 -11 14 -14 15 -9 3 4 -14
-1 -16 -33 -12 -21 2 -44 6 -50 8 -7 3 -13 -1 -13 -7 0 -7 -7 -3 -15 8 -10 12
-13 14 -10 3 5 -13 -1 -15 -45 -9 -27 4 -50 4 -50 0 0 -3 -9 -6 -19 -6 -16 0
-17 3 -9 14 6 7 7 12 2 11 -5 -1 -16 -1 -24 0 -12 1 -12 3 2 11 10 6 15 20 13
35 -1 14 1 25 6 25 6 0 21 31 24 50 0 3 3 10 6 15 4 6 5 18 4 28 -2 9 1 15 6
11 5 -3 10 4 10 15 3 38 4 42 18 50 8 5 10 14 6 22 -6 9 -3 11 9 6 14 -5 17
-3 12 8 -3 8 -2 15 2 15 4 0 9 12 10 26 1 15 12 35 24 45 13 12 16 19 7 19 -7
0 -2 8 11 17 30 20 40 34 34 45 -3 5 2 11 10 14 9 3 16 12 16 20 0 8 8 14 19
14 10 0 23 6 29 13 10 12 12 17 12 38 0 5 4 8 9 5 5 -3 14 1 21 9 7 8 18 15
25 15 7 0 16 7 19 16 4 9 9 14 13 11 3 -4 12 1 20 11 9 10 11 11 7 2 -6 -12
-5 -13 7 -4 19 14 179 19 179 5 0 -5 9 -8 20 -6 18 3 25 -6 21 -28 -1 -5 2 -6
7 -3 5 3 14 -4 22 -14 8 -10 17 -17 22 -14 4 3 8 -10 8 -28 0 -19 5 -39 12
-46 9 -9 9 -12 0 -12 -7 0 -12 -12 -12 -26 0 -17 -4 -23 -12 -18 -8 5 -7 0 2
-11 8 -10 10 -16 3 -12 -6 4 -14 1 -16 -5 -6 -14 -9 15 -10 70 0 20 -5 32 -13
32 -8 0 -13 5 -11 12 3 16 -63 48 -92 43 -22 -4 -39 -16 -80 -55 -24 -22 -16
-98 12 -124 13 -12 24 -24 25 -28 6 -23 41 -43 75 -44 20 -1 37 2 37 6 0 4 11
11 26 14 32 8 98 57 102 76 2 8 8 17 13 18 5 2 6 8 3 14 -4 6 -2 13 4 17 17
10 22 92 6 98 -8 3 -14 14 -14 24 0 18 -100 128 -100 111 0 -4 -7 2 -15 12
-11 14 -15 16 -15 5 0 -12 -2 -12 -9 0 -5 7 -28 15 -52 17 -23 2 -46 9 -51 16
-6 10 -8 10 -8 -1 0 -8 -2 -12 -6 -9 -3 3 -20 2 -39 -2 -24 -5 -40 -4 -52 6
-17 13 -17 13 0 14 9 0 17 8 17 17 0 9 2 14 5 11 7 -7 105 86 105 100 0 7 6
12 14 12 22 0 66 26 58 35 -4 5 1 5 11 2 9 -4 17 -2 17 3 0 16 57 39 108 42 6
1 12 5 12 10 0 4 5 8 11 8 5 0 8 -3 6 -7 -8 -12 47 -12 61 -1 9 8 16 8 24 0
16 -16 48 -15 48 1 0 9 2 9 9 -1 7 -11 29 -17 82 -21 9 0 22 -12 29 -26 8 -15
20 -23 27 -20 8 2 11 1 8 -4 -3 -5 5 -17 17 -25 13 -9 23 -22 23 -29 0 -6 5
-14 10 -17 23 -10 38 -60 41 -135 3 -79 -3 -161 -13 -152 -6 7 -43 -30 -43
-44 0 -5 -4 -7 -10 -4 -5 3 -10 0 -10 -8 0 -10 -7 -13 -20 -10 -11 3 -20 1
-20 -5 0 -10 -81 -9 -128 2 -13 3 -20 1 -17 -5 4 -5 11 -7 16 -4 5 4 9 -1 9
-10 0 -9 5 -13 10 -10 6 3 10 2 10 -3 0 -4 29 -8 65 -8 36 1 65 4 65 8 0 4 7
4 17 1 12 -5 14 -3 8 7 -6 10 -3 12 13 8 13 -4 20 -2 16 4 -3 5 3 12 13 14 10
3 20 15 20 26 1 12 7 26 14 32 9 8 10 7 4 -3 -5 -10 -4 -12 4 -7 6 4 8 12 5
18 -4 6 -1 14 7 18 7 5 13 28 13 54 1 25 5 46 10 46 5 0 4 6 -1 13 -5 6 -9 35
-8 64 1 33 -4 54 -11 57 -7 3 -11 17 -10 31 3 20 0 25 -12 20 -12 -4 -12 -3
-3 9 9 11 8 15 -4 20 -9 3 -14 10 -11 15 3 5 -1 11 -9 15 -8 3 -15 11 -15 17
0 15 -42 59 -57 59 -7 0 -17 9 -22 19 -11 20 -60 41 -97 41 -13 0 -26 5 -30
12 -5 7 -3 8 6 3 7 -5 11 -4 7 1 -3 5 -20 8 -39 8 -18 -1 -42 6 -52 15 -11 9
-16 10 -12 4 9 -16 5 -16 -28 -3 -18 6 -26 6 -26 -1 0 -6 -4 -7 -10 -4 -5 3
-10 2 -10 -3 0 -5 -15 -10 -32 -10 -60 0 -69 -2 -64 -11 3 -5 -12 -11 -34 -15
-46 -7 -103 -39 -92 -51 4 -4 -1 -5 -11 -2 -11 4 -20 1 -23 -8 -4 -8 -15 -15
-25 -15 -10 0 -19 -5 -19 -11 0 -5 -4 -7 -10 -4 -6 4 -7 -1 -3 -11 4 -12 3
-15 -5 -10 -7 4 -15 1 -18 -8 -3 -9 -12 -16 -19 -16 -20 0 -166 -153 -160
-167 2 -7 -1 -13 -9 -13 -15 0 -57 -46 -48 -54 3 -4 -4 -13 -15 -21 -23 -16
-71 -91 -51 -79 7 4 5 -2 -5 -13 -9 -11 -14 -23 -10 -26 3 -4 -1 -7 -10 -7 -9
0 -17 -6 -17 -14 0 -8 -4 -16 -9 -18 -6 -1 -13 -19 -16 -38 -3 -19 -13 -39
-21 -43 -8 -5 -12 -12 -9 -18 4 -5 -2 -9 -12 -9 -15 0 -16 -2 -3 -11 11 -8 12
-12 3 -16 -7 -2 -13 -13 -13 -24 0 -10 -4 -19 -10 -19 -5 0 -10 -13 -10 -30 0
-16 -4 -30 -10 -30 -5 0 -8 -10 -6 -22 1 -13 -2 -31 -8 -40 -13 -22 -40 -24
-32 -3 3 8 1 15 -4 15 -5 0 -7 7 -4 15 4 8 2 15 -4 15 -6 0 -10 84 -10 230 0
136 3 230 9 230 5 0 9 7 9 15 0 8 6 15 13 15 8 0 7 3 -3 10 -12 8 -12 10 4 16
14 5 15 9 4 15 -11 7 -11 9 1 9 7 0 11 6 7 15 -3 8 0 15 7 15 8 0 6 4 -3 10
-8 5 -10 10 -5 10 6 0 11 8 12 18 1 18 10 57 13 57 1 0 3 9 5 20 2 11 14 28
26 37 11 10 16 18 10 18 -7 0 -6 8 4 23 8 13 12 27 8 30 -3 4 1 7 10 7 9 0 18
12 22 30 4 17 11 28 16 24 5 -3 9 2 9 11 0 19 23 45 40 45 6 0 13 14 17 30 3
17 8 28 11 26 7 -7 66 24 75 40 4 8 15 14 23 14 8 0 12 4 9 10 -3 5 0 7 8 4 8
-3 18 -1 22 5 3 6 17 11 31 11 13 0 24 5 24 11 0 6 6 9 14 6 8 -3 20 1 26 8 7
8 16 13 20 10 13 -8 40 6 33 18 -4 6 -1 7 8 1 8 -5 28 -9 45 -9 30 0 69 -27
57 -39 -4 -3 3 -6 15 -6 12 0 22 -4 22 -9 0 -10 39 -27 53 -23 4 1 7 -4 7 -11
0 -24 55 -18 83 9 15 14 28 28 28 32 6 32 5 52 -3 52 -5 0 -6 5 -3 10 3 6 -1
13 -9 16 -9 3 -14 9 -12 13 10 16 -141 18 -157 2 -6 -6 -16 -11 -22 -11 -5 0
-3 5 5 10 12 8 10 10 -8 10 -13 0 -21 -4 -18 -8 2 -4 -4 -8 -14 -8 -10 0 -16
4 -14 8 3 4 0 8 -5 8 -6 0 -11 -6 -11 -12 0 -10 -3 -9 -9 1 -6 9 -10 10 -12 2
-2 -6 -26 -12 -52 -13 -26 0 -47 -4 -47 -9 0 -5 -7 -6 -15 -3 -8 4 -17 -1 -21
-9 -3 -9 -14 -14 -25 -12 -12 2 -19 -2 -19 -11 0 -8 -5 -14 -11 -14 -5 0 -8 4
-5 8 3 5 -1 9 -9 9 -8 0 -12 -4 -9 -9 3 -4 -1 -8 -9 -8 -12 0 -16 20 -19 99
-2 82 -7 103 -23 122 -11 12 -14 19 -6 14 10 -6 12 -4 7 4 -5 7 -15 10 -23 7
-8 -4 -11 -2 -7 5 3 6 -5 21 -20 34 -14 12 -23 25 -19 29 3 3 -6 6 -20 6 -16
0 -27 6 -27 13 0 8 -6 14 -12 15 -7 1 -25 3 -40 5 -15 1 -30 5 -33 9 -3 3 -19
4 -36 2 -18 -2 -28 0 -24 6 4 6 -10 1 -30 -10 -20 -11 -33 -16 -30 -9 5 7 -3
10 -21 8 -45 -3 -66 0 -60 10 13 21 -53 43 -99 33z m147 -1517 c2 -19 0 -35
-5 -35 -5 0 -3 -8 4 -17 10 -11 10 -14 2 -9 -16 9 -16 1 -3 -24 8 -15 7 -18
-3 -14 -9 3 -14 25 -14 69 -1 69 12 89 19 30z m-5 -135 c1 -11 -1 -22 -5 -24
-4 -2 -8 7 -8 20 -1 13 1 24 5 24 4 0 7 -9 8 -20z m-1771 -533 c4 -3 16 -1 27
5 17 9 19 8 13 -8 -7 -18 -6 -18 10 -2 16 16 18 16 31 0 8 -9 12 -12 9 -6 -3
7 4 14 15 17 12 3 18 3 15 0 -8 -8 52 -44 75 -46 11 -1 19 -4 19 -8 0 -4 14
-10 30 -14 17 -4 30 -13 30 -21 0 -9 7 -14 18 -12 9 2 16 -3 15 -9 -2 -7 0
-12 5 -12 26 4 42 -3 42 -21 0 -11 6 -19 13 -18 6 2 11 -3 9 -11 -1 -7 8 -22
20 -33 13 -11 22 -24 20 -29 -1 -5 3 -9 9 -9 6 0 9 -6 6 -12 -2 -7 3 -22 12
-32 9 -11 10 -16 4 -12 -7 4 -13 3 -13 -2 0 -6 7 -12 15 -16 8 -3 12 -12 9
-19 -3 -8 1 -21 8 -28 18 -19 15 -117 -4 -151 -8 -15 -18 -25 -21 -21 -4 3 -7
1 -7 -5 0 -7 5 -12 12 -12 6 0 4 -6 -7 -13 -11 -9 -15 -19 -10 -27 6 -10 1
-12 -19 -8 -16 3 -26 1 -26 -6 0 -13 -64 -14 -92 -1 -10 4 -18 13 -18 21 0 8
-4 14 -10 14 -5 0 -7 7 -3 17 5 14 8 13 15 -6 4 -12 12 -20 17 -16 6 3 14 -3
20 -12 7 -12 10 -13 11 -4 0 11 3 11 16 1 12 -11 15 -11 12 1 -2 8 3 13 10 11
6 -1 12 2 12 8 0 5 6 10 14 10 11 0 14 12 11 51 -5 58 -4 58 -35 64 -12 2 -29
10 -37 16 -10 9 -17 9 -21 2 -4 -6 -18 -13 -32 -14 -13 -2 -31 -11 -40 -20
-38 -39 -45 -74 -22 -115 6 -12 8 -24 5 -28 -3 -3 1 -6 11 -6 9 0 14 -4 11
-10 -3 -5 3 -10 15 -10 12 0 19 -4 16 -9 -3 -4 5 -6 18 -4 13 3 27 0 30 -6 4
-6 16 -11 27 -11 11 0 17 5 14 10 -3 6 -2 10 4 10 6 0 15 -9 21 -20 8 -16 8
-20 -2 -18 -7 2 -12 -3 -10 -11 1 -7 -8 -28 -22 -46 -14 -18 -22 -35 -19 -39
4 -3 0 -6 -8 -6 -11 0 -11 -2 1 -10 12 -7 12 -10 1 -10 -7 0 -11 -6 -8 -14 3
-8 1 -16 -5 -18 -9 -3 -15 -37 -17 -91 -1 -10 -5 -15 -11 -12 -14 9 -13 -138
1 -152 6 -6 11 -30 11 -52 0 -23 3 -39 8 -36 5 3 11 1 15 -5 3 -5 1 -10 -5
-10 -8 0 -8 -6 0 -20 6 -11 8 -25 5 -30 -3 -6 1 -10 9 -10 9 0 16 -3 15 -7 -2
-15 13 -53 21 -53 4 0 10 -9 13 -19 6 -24 -19 -36 -27 -14 -4 9 -14 13 -26 10
-11 -3 -18 0 -17 5 2 10 -89 39 -97 31 -2 -3 -10 5 -16 17 -9 17 -14 19 -26 9
-12 -10 -15 -10 -12 2 2 8 -5 14 -16 14 -11 0 -21 6 -24 13 -2 6 -12 12 -23
12 -10 0 -19 5 -19 11 0 6 -7 9 -15 5 -14 -5 -40 26 -30 36 2 2 -5 5 -17 5
-12 1 -25 8 -29 15 -10 19 -59 70 -59 63 0 -4 -7 0 -15 9 -17 17 -32 87 -27
128 2 20 11 30 28 34 13 3 24 10 24 15 0 5 7 9 15 9 21 0 15 21 -14 46 -17 16
-20 23 -10 27 11 4 12 7 1 15 -13 9 -6 45 8 37 5 -3 7 3 5 12 -2 10 -4 22 -4
26 -1 4 -9 3 -20 -2 -10 -6 -22 -7 -26 -3 -3 4 -6 3 -5 -3 4 -19 0 -38 -6 -32
-9 8 -47 -40 -40 -51 3 -5 -4 -16 -14 -25 -19 -16 -20 -35 -11 -155 1 -7 5
-11 10 -8 11 7 23 -22 14 -36 -3 -6 -1 -8 5 -4 6 3 13 2 16 -3 3 -5 0 -11 -8
-14 -8 -3 -17 1 -20 9 -3 9 -10 13 -15 10 -4 -3 -20 8 -35 24 -14 17 -34 30
-44 30 -14 0 -15 2 -2 10 13 9 13 10 0 11 -8 1 -18 1 -22 0 -4 0 -10 9 -14 21
-4 12 -17 31 -30 41 -13 10 -24 25 -24 32 0 7 -10 22 -22 32 -13 10 -23 24
-24 31 -2 29 -5 33 -14 27 -5 -3 -11 2 -12 12 0 10 -2 23 -3 28 -2 6 -4 15 -5
20 -1 6 -2 14 -1 18 1 4 -4 18 -11 30 -15 29 -18 228 -3 233 6 3 12 19 13 37
3 66 9 98 20 109 7 7 12 17 12 23 0 5 12 21 25 34 14 12 23 26 20 30 -2 4 12
22 31 40 19 18 32 37 28 42 -3 5 3 9 14 9 11 0 35 14 53 30 19 17 42 28 52 26
9 -2 15 0 11 5 -3 5 2 9 11 9 15 0 24 3 83 34 17 10 38 14 45 10 9 -6 9 -5 0
7 -11 13 -9 15 7 14 11 -1 23 -4 26 -8z m2050 -350 c4 -3 -6 -5 -20 -3 -14 1
-29 5 -32 9 -3 3 6 4 20 3 15 -2 29 -6 32 -9z m-1074 -191 c3 -5 19 -10 35
-11 15 -1 38 -7 51 -14 12 -6 22 -9 22 -5 0 3 6 1 13 -5 8 -6 17 -8 20 -5 5 6
15 -1 51 -33 8 -7 17 -9 20 -6 4 4 5 -14 2 -40 -4 -44 -3 -46 15 -37 10 6 19
8 19 4 0 -3 7 0 16 7 14 12 16 11 12 -6 -2 -14 -10 -19 -26 -17 -16 2 -20 -1
-16 -11 3 -8 0 -18 -5 -22 -6 -3 -9 -11 -6 -16 4 -5 -2 -9 -12 -9 -15 0 -16
-2 -3 -10 8 -5 11 -12 7 -16 -4 -4 -2 -13 4 -20 7 -8 6 -14 -2 -20 -8 -5 -9
-3 -4 6 5 9 4 11 -4 6 -9 -6 -9 -11 0 -22 6 -8 9 -25 7 -39 -3 -14 -1 -28 4
-31 5 -3 5 -11 0 -17 -17 -22 -21 -46 -10 -53 7 -5 8 -2 3 6 -5 9 -4 11 4 6 6
-4 8 -12 5 -18 -4 -6 -7 -24 -6 -40 0 -15 -2 -26 -6 -24 -4 2 -7 -9 -7 -24 0
-18 4 -25 10 -20 6 5 11 -5 13 -27 1 -24 -3 -40 -15 -50 -10 -8 -12 -12 -5 -8
15 8 16 -7 1 -22 -8 -8 -7 -13 2 -18 8 -6 10 -4 4 5 -6 9 -4 11 5 5 10 -6 10
-11 -4 -20 -16 -12 -15 -13 0 -19 13 -5 15 -9 6 -18 -15 -15 -16 -32 -2 -23 6
3 10 1 10 -4 0 -6 -7 -11 -16 -11 -8 0 -12 -5 -9 -10 4 -6 12 -7 18 -3 9 5 9
3 1 -8 -18 -24 -24 -48 -12 -55 7 -5 8 -2 3 6 -5 9 -4 11 4 6 8 -6 9 -12 2
-20 -6 -7 -7 -16 -3 -20 12 -12 9 -30 -8 -44 -8 -8 -9 -11 -2 -7 10 5 13 0 12
-16 -1 -13 -1 -26 0 -29 6 -17 8 -100 2 -96 -4 2 -7 -31 -7 -74 0 -43 3 -76 6
-74 3 2 5 -9 3 -24 -1 -15 -2 -35 -3 -45 -1 -10 -5 -16 -9 -13 -5 3 -9 -2 -9
-10 0 -9 6 -13 16 -9 14 6 14 5 0 -10 -18 -18 -14 -68 5 -59 6 3 2 -2 -8 -10
-11 -9 -15 -16 -9 -16 13 0 12 -18 -1 -39 -6 -10 -5 -12 2 -7 14 9 15 1 3 -41
-7 -22 -6 -35 1 -39 6 -4 8 -2 4 4 -3 6 -2 13 3 17 12 7 7 -26 -8 -53 -7 -13
-7 -22 1 -30 8 -8 8 -15 -1 -26 -9 -11 -9 -16 0 -22 8 -5 9 -3 4 6 -5 9 -4 11
4 6 6 -4 8 -12 4 -18 -8 -15 -8 -76 0 -85 4 -3 3 -11 -2 -17 -16 -21 -20 -45
-9 -52 7 -5 8 -2 3 6 -5 9 -4 11 4 6 8 -6 9 -12 2 -20 -6 -7 -7 -16 -3 -20 12
-12 9 -30 -8 -44 -8 -8 -9 -11 -2 -7 14 7 15 0 3 -24 -6 -11 -6 -22 1 -32 8
-11 9 -11 4 3 -3 10 -1 20 3 22 9 6 8 -20 -2 -46 -15 -38 -15 -47 -4 -52 9 -3
8 -8 -3 -15 -8 -6 -10 -11 -4 -11 7 0 15 -7 18 -16 5 -12 2 -15 -10 -10 -14 5
-15 4 -4 -9 10 -11 10 -18 1 -29 -9 -11 -9 -16 0 -22 8 -5 9 -3 4 6 -5 9 -4
11 4 6 6 -4 8 -12 4 -19 -3 -6 -6 -29 -5 -51 1 -63 -5 -74 -48 -81 -22 -4 -40
-11 -40 -16 0 -6 -4 -7 -10 -4 -5 3 -10 1 -10 -5 0 -6 -4 -9 -9 -6 -4 3 -17
-1 -27 -9 -10 -8 -26 -15 -36 -15 -9 0 -18 -5 -20 -10 -2 -6 -13 -12 -26 -13
-12 0 -22 -5 -22 -10 0 -4 -5 -5 -10 -2 -6 3 -13 -1 -16 -9 -3 -9 -10 -14 -14
-11 -4 3 -13 -2 -20 -10 -7 -8 -22 -15 -34 -15 -15 0 -17 -3 -8 -9 10 -6 8
-10 -10 -16 -12 -4 -30 -8 -40 -8 -10 0 -14 -5 -10 -15 3 -9 1 -13 -4 -9 -12
7 -26 -2 -40 -28 -6 -11 -15 -20 -20 -21 -13 -1 -60 -23 -52 -23 4 -1 -7 -16
-25 -35 -18 -18 -35 -32 -38 -30 -7 4 -23 -26 -21 -38 1 -5 -4 -8 -12 -8 -8 0
-22 -10 -30 -22 -9 -12 -16 -18 -16 -13 0 6 -7 -3 -15 -19 -8 -15 -12 -33 -8
-39 3 -5 2 -8 -3 -5 -8 5 -41 -23 -46 -39 -2 -5 -6 -7 -10 -5 -5 1 -8 -5 -8
-13 0 -8 -9 -23 -21 -34 -12 -11 -18 -24 -15 -29 3 -6 -1 -12 -8 -15 -10 -4
-14 1 -13 14 1 10 5 19 10 19 4 0 6 4 2 9 -3 5 3 16 13 23 10 7 22 27 26 43 3
17 8 36 9 43 2 8 10 18 18 23 8 5 10 9 4 9 -5 0 -4 4 3 8 7 5 15 19 17 33 3
13 10 29 17 34 7 6 14 19 16 29 2 10 10 26 18 34 8 8 13 21 10 28 -3 8 1 14 9
14 14 0 20 20 15 45 -1 5 2 6 7 2 4 -5 13 8 19 30 7 21 16 37 20 36 5 -1 10
11 11 25 0 15 6 28 12 30 6 2 11 10 11 18 0 9 5 12 12 8 7 -5 9 -2 5 8 -3 9
-3 19 1 22 3 4 7 12 8 19 5 29 10 42 22 55 7 8 9 18 6 24 -4 7 -2 8 4 4 7 -4
13 -2 13 3 3 20 5 26 18 50 9 17 10 21 1 16 -7 -4 -5 3 3 16 17 25 17 26 17
59 0 11 7 20 16 20 8 0 12 5 9 10 -4 6 0 22 9 35 15 23 15 24 -1 19 -17 -5
-17 -5 -1 8 10 9 15 26 14 47 -1 20 3 35 11 38 8 3 13 13 12 22 -5 33 13 122
28 136 13 13 12 15 -3 15 -14 0 -15 2 -3 17 12 15 12 16 -1 8 -13 -8 -13 -7
-1 8 7 9 10 17 5 17 -5 0 -9 20 -9 44 0 24 3 42 7 40 13 -8 9 11 -4 25 -10 11
-10 13 0 7 6 -4 12 -2 12 3 0 6 -5 11 -11 11 -6 0 -7 5 -2 13 10 17 13 38 3
32 -4 -2 -10 12 -13 33 -7 45 -12 62 -22 85 -4 9 -4 24 -1 33 3 8 2 13 -2 11
-4 -3 -14 2 -22 11 -13 14 -12 15 4 9 15 -6 17 -5 8 6 -7 8 -9 17 -5 20 3 4 1
7 -6 7 -8 0 -11 6 -7 16 4 12 2 15 -9 10 -10 -4 -15 1 -15 16 0 12 -8 30 -17
41 -13 15 -14 18 -3 12 13 -8 13 -7 0 10 -8 11 -24 29 -36 40 -12 11 -24 29
-28 41 -3 12 -18 26 -31 32 -14 6 -25 19 -25 27 0 9 -4 14 -8 11 -5 -3 -9 0
-9 7 0 7 -4 21 -8 32 -5 16 -5 17 4 5 6 -8 11 -10 11 -5 0 6 5 2 11 -8 8 -14
14 -15 24 -7 7 6 16 7 19 2 7 -12 176 -15 176 -2 0 5 5 10 11 10 5 0 7 -5 3
-11 -3 -6 4 -4 17 4 13 8 34 14 47 12 13 -1 22 4 22 13 0 8 6 12 13 9 15 -5
39 18 29 29 -4 4 -2 4 5 1 6 -4 27 8 47 26 20 19 39 31 43 28 4 -3 1 3 -7 13
-10 13 -10 17 -2 12 7 -4 12 -1 12 8 0 9 7 16 15 16 8 0 15 7 15 15 0 8 5 15
11 15 6 0 9 7 6 15 -4 8 -2 17 2 19 5 3 9 16 9 28 2 32 6 51 16 67 6 9 5 12
-1 8 -6 -4 -11 17 -12 56 -3 92 -2 90 -20 111 -13 16 -13 18 -1 12 9 -4 8 -2
-2 7 -10 8 -18 20 -18 26 0 7 -5 9 -12 5 -8 -5 -9 -2 -5 9 4 11 1 17 -8 18 -8
1 -19 3 -25 4 -5 1 -14 3 -20 4 -5 0 -10 7 -10 15 0 9 -7 12 -20 9 -14 -4 -20
0 -20 10 0 10 -8 14 -25 13 -15 -2 -22 1 -18 7 4 6 0 8 -9 4 -9 -3 -20 -1 -26
5 -6 6 -12 6 -17 -3 -6 -8 -4 -10 5 -4 8 5 11 4 6 -3 -4 -7 -17 -8 -36 -2 -19
5 -30 5 -30 -1 0 -6 -4 -8 -9 -5 -14 9 -42 -5 -34 -18 3 -6 3 -8 -2 -4 -4 4
-27 -4 -50 -17 -23 -14 -45 -22 -50 -17 -4 4 -6 0 -2 -9 3 -9 -1 -28 -8 -43
-8 -14 -12 -26 -9 -26 3 0 -1 -7 -10 -15 -15 -16 -11 -49 5 -39 5 3 6 -1 3 -9
-3 -8 2 -20 11 -27 14 -12 15 -10 11 14 -5 28 36 106 56 106 5 0 6 5 3 10 -6
9 8 14 28 11 4 0 7 3 7 9 0 18 93 28 150 17 64 -12 175 -101 148 -119 -8 -4
-8 -8 -2 -8 6 0 10 -10 9 -22 -1 -13 1 -25 6 -28 14 -10 15 -75 1 -66 -5 3 -9
-1 -9 -9 0 -8 5 -11 10 -8 6 4 7 1 1 -8 -5 -8 -7 -22 -6 -31 2 -10 -1 -18 -7
-18 -6 0 -8 -6 -5 -14 8 -20 -37 -78 -54 -71 -7 3 -10 0 -6 -6 6 -11 -35 -46
-48 -41 -5 1 -8 -3 -8 -9 0 -5 -4 -8 -9 -5 -5 3 -14 -1 -21 -9 -7 -8 -16 -13
-20 -10 -5 3 -14 -1 -22 -8 -16 -15 -157 -18 -155 -3 1 6 -5 11 -13 12 -8 0
-23 2 -32 2 -10 1 -17 5 -17 10 3 18 -2 24 -13 15 -14 -10 -60 8 -58 23 0 4
-6 9 -15 10 -8 1 -29 16 -46 33 -17 17 -35 29 -40 26 -5 -4 -6 2 -2 11 5 13 3
15 -7 9 -8 -5 -11 -4 -7 3 9 14 -3 43 -14 36 -5 -3 -9 2 -9 10 0 9 -4 16 -9
16 -9 0 -26 66 -22 88 1 8 -3 20 -9 27 -18 22 -21 112 -4 119 8 3 13 18 12 38
-1 18 2 42 6 53 19 51 51 108 63 112 7 3 11 8 8 12 -5 9 61 81 73 81 5 0 14
11 22 24 8 16 18 22 28 18 11 -4 14 -1 9 11 -4 11 -2 14 9 10 7 -3 14 0 14 6
0 6 7 11 16 11 9 0 12 5 8 13 -5 7 0 6 11 -3 11 -9 16 -10 11 -2 -7 12 10 17
43 13 7 -2 11 1 8 6 -5 8 14 12 60 13 11 0 23 6 26 13 6 15 128 18 139 3z
m4292 -49 c-6 -9 -4 -9 7 -1 20 14 79 18 79 5 0 -6 9 -11 19 -11 11 0 22 -4
26 -10 3 -5 12 -7 20 -3 8 3 15 0 15 -6 0 -6 7 -11 16 -11 9 0 23 -8 31 -17 8
-10 12 -12 8 -5 -3 6 -4 12 0 12 3 0 10 -11 15 -25 5 -14 17 -25 25 -25 9 0
14 -4 11 -9 -3 -5 1 -12 10 -15 8 -3 12 -10 9 -16 -3 -5 -1 -10 6 -10 7 0 9
-3 6 -7 -4 -3 1 -12 11 -20 11 -9 11 -12 2 -7 -12 6 -13 4 -2 -7 15 -16 17
-215 2 -224 -6 -4 -8 -10 -5 -15 3 -5 -5 -20 -17 -32 -13 -13 -22 -26 -20 -30
2 -8 -14 -12 -32 -9 -5 1 -6 -5 -2 -14 3 -9 2 -14 -2 -11 -5 3 -21 -2 -36 -10
-41 -21 -142 -19 -155 4 -6 9 -11 13 -11 9 0 -5 -13 0 -29 9 -17 10 -28 21
-25 26 3 4 0 8 -6 8 -6 0 -9 4 -5 9 3 5 -1 15 -8 23 -31 31 -46 98 -22 98 9 0
14 4 10 9 -3 5 -1 12 5 16 15 9 12 28 -2 19 -7 -4 -4 2 7 13 11 11 26 29 34
40 9 14 26 20 58 22 58 2 69 9 46 30 -23 20 -103 25 -103 5 0 -8 -6 -11 -15
-8 -8 4 -17 -1 -21 -10 -3 -9 -12 -16 -20 -16 -8 0 -14 -7 -14 -15 0 -8 -5
-15 -11 -15 -6 0 -9 -7 -5 -15 3 -8 1 -15 -5 -15 -6 0 -8 -4 -4 -9 3 -5 1 -12
-3 -15 -11 -6 -10 -117 1 -133 5 -8 3 -13 -4 -13 -7 0 -4 -7 7 -16 10 -8 12
-13 4 -9 -8 4 -3 -5 13 -19 15 -14 27 -30 27 -36 0 -5 7 -10 16 -10 8 0 12 -4
9 -10 -5 -9 8 -14 19 -7 2 1 14 -7 27 -18 12 -11 19 -14 15 -7 -4 6 -2 12 3
12 6 0 11 -6 11 -13 0 -9 16 -13 50 -13 56 -1 91 -20 52 -30 -12 -4 -22 -14
-22 -25 0 -10 -9 -25 -21 -33 -19 -13 -21 -24 -22 -125 -1 -96 2 -113 19 -132
l19 -21 -35 7 c-19 4 -39 11 -44 15 -5 5 -15 6 -23 3 -8 -3 -13 0 -11 8 2 8
-3 13 -11 11 -7 -1 -20 3 -29 10 -9 7 -13 8 -9 2 3 -6 0 -11 -8 -11 -8 0 -12
4 -10 8 3 4 -2 9 -10 13 -8 3 -15 13 -15 21 0 9 -5 13 -10 10 -6 -3 -13 1 -16
9 -3 9 -12 16 -20 16 -7 0 -19 12 -27 28 -7 15 -19 26 -25 24 -7 -1 -12 5 -12
13 0 8 -4 15 -10 15 -5 0 -10 6 -10 13 0 7 -11 21 -25 31 -20 15 -23 22 -13
33 9 11 8 13 -2 11 -8 -2 -16 6 -18 17 -2 11 -9 23 -16 27 -6 4 -11 12 -11 18
0 6 -4 14 -10 18 -10 7 -16 24 -19 52 0 8 -5 18 -11 22 -5 4 -11 16 -11 28 -1
11 -2 29 -3 41 0 11 -5 18 -10 15 -12 -8 -8 47 4 56 6 5 6 8 -1 8 -6 0 -11 7
-11 15 0 8 5 15 11 15 6 0 4 5 -4 10 -13 9 -13 10 0 10 11 0 15 9 14 28 0 15
5 37 13 49 8 12 14 24 14 27 -3 19 0 26 9 21 6 -4 10 -3 9 2 -4 21 2 33 17 33
8 0 13 4 9 9 -3 5 2 17 11 25 8 9 12 16 7 16 -11 1 29 24 42 25 6 1 9 7 7 14
-2 9 3 11 14 7 15 -6 15 -4 3 11 -8 9 -9 14 -2 10 6 -4 14 -3 18 2 3 5 14 8
25 6 12 -2 20 2 20 10 0 7 8 12 18 11 18 -3 53 14 47 24 -1 3 15 6 36 7 29 2
38 -1 33 -10z m-4858 -64 c-7 -7 -26 7 -26 19 0 6 6 6 15 -2 9 -7 13 -15 11
-17z m1710 -125 c9 -9 6 -10 -68 -12 -40 -1 -54 2 -47 10 10 12 103 13 115 2z
m36 -116 c-7 -2 -10 -8 -7 -12 3 -5 2 -11 -3 -14 -4 -2 -8 6 -8 19 0 16 4 21
15 17 10 -4 11 -7 3 -10z m-68 -8 c3 -8 2 -12 -4 -9 -6 3 -10 10 -10 16 0 14
7 11 14 -7z m-270 -172 c3 -5 -1 -9 -9 -9 -8 0 -12 4 -9 9 3 4 7 8 9 8 2 0 6
-4 9 -8z m-2024 -16 c0 -3 -4 -8 -10 -11 -5 -3 -10 -1 -10 4 0 6 5 11 10 11 6
0 10 -2 10 -4z m-52 -69 c9 3 14 3 11 -1 -10 -11 -59 -17 -59 -7 0 12 24 21
28 10 2 -4 11 -5 20 -2z m2098 -23 c2 -22 17 -44 30 -44 8 0 18 -8 21 -17 4
-10 16 -26 28 -36 19 -17 19 -17 -13 0 -19 11 -30 23 -27 32 5 11 3 12 -10 1
-12 -10 -15 -10 -15 4 0 9 -4 16 -10 16 -5 0 -9 3 -8 8 1 4 -4 18 -11 31 -11
19 -11 23 1 19 7 -3 13 -9 14 -14z m-2535 -147 c-10 -9 -11 -8 -5 6 3 10 9 15
12 12 3 -3 0 -11 -7 -18z m2653 7 c5 -14 4 -15 -9 -4 -17 14 -19 20 -6 20 5 0
12 -7 15 -16z m36 1 c11 -13 10 -14 -4 -9 -9 3 -16 10 -16 15 0 13 6 11 20 -6z
m136 6 c8 7 14 7 19 -1 5 -8 11 -7 23 2 12 10 14 10 8 1 -9 -16 -1 -16 25 -3
15 8 19 8 17 -2 -2 -7 3 -12 10 -10 8 1 11 -2 7 -8 -3 -6 -12 -7 -18 -3 -18
12 -58 10 -53 -2 4 -12 -79 -14 -90 -2 -11 11 -26 8 -19 -3 3 -5 4 -10 1 -10
-3 0 -10 8 -15 18 -9 16 -6 18 25 16 25 -2 33 0 28 9 -5 9 -4 9 6 0 9 -9 17
-9 26 -2z m3111 -352 c11 -10 14 -10 9 -1 -6 10 -2 10 18 0 14 -6 26 -16 26
-21 0 -5 8 -3 17 4 9 8 14 9 10 2 -4 -7 1 -14 13 -18 11 -3 20 -11 20 -16 0
-5 8 -9 18 -9 10 0 27 -7 38 -16 10 -8 12 -12 4 -8 -8 4 0 -7 17 -24 18 -18
38 -32 44 -32 6 0 9 -9 6 -20 -3 -11 -1 -18 3 -15 12 7 41 -36 33 -48 -3 -6
-1 -7 5 -3 11 6 16 -5 13 -26 0 -4 10 -19 24 -33 13 -15 21 -33 18 -41 -3 -8
-1 -14 4 -14 10 0 14 -17 13 -64 0 -16 5 -33 11 -37 8 -4 11 -34 10 -80 -2
-100 -4 -118 -13 -113 -4 3 -8 -13 -8 -35 0 -54 0 -54 -12 -68 -6 -7 -15 -10
-22 -6 -6 4 -5 0 2 -9 9 -11 10 -18 2 -23 -6 -3 -8 -10 -5 -15 3 -4 -2 -13
-10 -20 -8 -7 -15 -19 -15 -27 0 -8 -4 -11 -10 -8 -5 3 -10 -1 -10 -10 0 -9
-4 -13 -10 -10 -6 3 -7 -1 -4 -9 4 -11 0 -16 -10 -16 -9 0 -15 -4 -13 -8 4
-16 -83 -94 -99 -88 -8 3 -12 1 -9 -4 6 -10 -80 -70 -101 -70 -7 0 -17 -8 -23
-17 -5 -10 -12 -17 -15 -15 -3 1 -14 2 -23 2 -15 0 -16 -2 -3 -10 12 -8 11
-10 -7 -10 -12 0 -24 -4 -27 -9 -6 -9 -75 -24 -113 -25 -12 0 -20 -3 -17 -7 5
-9 -25 -16 -48 -11 -11 3 -16 14 -16 32 1 16 -6 40 -15 54 -10 14 -17 29 -17
33 0 4 5 1 10 -7 5 -8 10 -10 10 -4 0 6 -7 17 -15 24 -8 7 -13 16 -10 20 3 5
-2 15 -10 24 -9 8 -16 18 -15 21 1 24 -3 34 -21 53 -11 12 -17 26 -14 31 3 5
-6 18 -20 29 -14 11 -25 27 -25 37 0 9 -4 14 -9 11 -9 -6 -33 48 -25 58 2 3 1
4 -2 1 -13 -9 -43 15 -38 30 4 10 0 15 -12 16 -11 0 -13 3 -7 6 7 2 26 -5 42
-16 16 -12 35 -21 43 -21 15 -1 50 -25 44 -31 -3 -2 7 -5 20 -5 24 -2 24 -1 7
13 -10 8 0 4 21 -8 22 -13 37 -19 34 -13 -4 5 16 9 47 8 30 0 52 3 49 8 -3 4
-1 8 5 8 5 0 12 -6 14 -12 4 -9 6 -8 6 2 1 15 77 57 94 52 5 -1 6 2 3 7 -4 5
0 13 8 18 14 8 16 12 16 34 0 5 5 7 10 4 6 -3 10 0 10 7 0 8 10 22 21 32 18
15 19 20 8 27 -11 7 -10 9 3 9 12 0 18 8 18 23 0 12 3 48 6 80 3 32 3 65 -2
75 -4 9 -6 25 -5 36 2 12 -1 16 -9 11 -8 -5 -11 -3 -8 6 6 17 -60 81 -75 72
-5 -3 -7 -2 -4 4 4 6 -5 15 -19 22 -30 13 -37 14 -30 3 3 -5 -1 -9 -9 -9 -8 0
-12 4 -9 9 3 4 0 8 -5 8 -6 0 -11 -14 -11 -31 0 -19 4 -28 11 -24 6 4 17 -1
25 -11 9 -11 12 -12 8 -4 -5 10 -1 9 14 -4 12 -10 19 -23 16 -27 -3 -5 3 -6
12 -2 12 4 15 3 10 -5 -4 -7 -2 -12 3 -12 6 0 11 -9 11 -20 0 -11 6 -20 13
-20 16 0 15 -89 -1 -99 -5 -3 -13 -21 -17 -38 -3 -18 -11 -33 -17 -33 -6 0 -8
-3 -5 -6 10 -10 -32 -64 -49 -64 -8 0 -12 -5 -9 -10 7 -12 -35 -31 -49 -22 -5
3 -6 -2 -3 -12 5 -13 2 -15 -17 -12 -13 2 -35 -1 -48 -8 -24 -13 -52 -11 -44
3 3 4 -14 7 -37 7 -28 -1 -48 5 -60 17 -10 10 -22 15 -27 12 -6 -4 -13 1 -16
9 -3 9 -11 16 -18 16 -15 0 -66 55 -66 70 0 7 -10 22 -23 34 -12 11 -23 35
-25 51 -1 17 -7 32 -13 34 -7 2 -7 6 2 12 12 7 11 9 -1 9 -13 0 -13 1 0 10 13
9 13 10 0 10 -13 0 -13 1 0 10 12 8 12 10 1 10 -11 0 -11 3 0 17 8 9 9 14 3
10 -6 -3 -11 0 -11 8 0 8 4 12 9 9 7 -5 12 25 9 54 -1 6 5 12 14 12 13 0 19
12 16 33 0 4 3 7 8 7 5 0 12 12 15 26 4 15 14 33 22 41 8 8 12 19 9 24 -5 8 0
10 20 9 8 -1 35 27 35 35 0 14 29 35 48 35 11 0 22 7 26 15 3 8 12 15 21 15 8
0 15 5 15 11 0 5 5 7 10 4 6 -3 10 -1 10 5 0 6 3 9 8 7 4 -3 20 0 37 7 41 17
229 13 252 -5z m-2854 -363 c-4 -5 0 -6 7 -1 8 5 26 9 40 9 14 0 32 -4 40 -9
9 -5 11 -4 6 3 -9 15 -1 15 24 2 13 -7 21 -7 26 1 4 8 9 7 15 -2 6 -10 9 -10
9 -2 0 9 7 10 23 4 12 -4 52 -7 90 -6 42 1 67 -3 67 -10 0 -6 26 -11 62 -12
47 -1 65 -6 75 -19 7 -10 13 -14 13 -10 0 5 8 2 17 -5 11 -10 14 -10 9 -1 -4
6 -3 12 1 12 5 0 15 -6 22 -12 11 -11 12 -10 6 2 -7 12 -6 13 6 3 8 -7 32 -13
53 -15 20 -1 40 -6 42 -10 3 -5 10 -6 15 -2 5 3 17 0 26 -8 9 -7 14 -8 10 -2
-3 6 0 11 7 11 8 0 12 -7 9 -14 -3 -8 0 -13 8 -11 8 2 13 -3 12 -9 -2 -7 0
-12 5 -12 24 4 52 -2 47 -11 -4 -6 7 -10 24 -10 17 0 31 -4 31 -9 0 -5 10 -7
22 -3 16 4 20 2 15 -10 -3 -10 0 -15 11 -14 9 0 16 -5 15 -11 -2 -7 6 -13 17
-13 11 0 19 -5 17 -11 -1 -6 7 -12 19 -13 22 -3 64 -39 64 -57 0 -5 4 -8 8 -5
11 6 52 -39 52 -57 0 -7 11 -21 25 -31 13 -10 22 -22 20 -26 -3 -4 1 -10 8
-13 6 -2 21 -28 32 -56 11 -28 25 -51 32 -51 9 0 12 -9 9 -25 -3 -14 -1 -23 5
-20 5 4 9 -3 9 -14 0 -11 5 -23 10 -26 6 -3 10 -17 10 -30 0 -13 5 -27 10 -30
6 -3 10 -15 10 -25 0 -11 6 -25 14 -32 11 -11 11 -15 -3 -26 -9 -7 -10 -11 -3
-7 6 3 12 4 12 1 0 -2 3 -12 7 -22 5 -12 3 -15 -6 -9 -10 6 -11 3 -1 -14 6
-12 10 -29 9 -39 -3 -30 1 -43 10 -38 4 3 7 -5 7 -17 -1 -12 2 -27 6 -34 5 -6
7 -83 4 -170 -5 -191 -5 -195 -15 -189 -4 3 -7 -8 -6 -24 1 -16 -2 -27 -7 -24
-15 10 -8 -9 10 -23 9 -8 12 -12 7 -10 -6 3 -18 -8 -28 -24 -9 -17 -12 -27 -7
-24 11 7 14 -18 3 -29 -4 -3 -8 -13 -9 -21 -1 -8 -12 -29 -25 -46 -13 -18 -17
-29 -10 -25 10 7 11 4 2 -13 -7 -12 -9 -27 -5 -33 5 -7 2 -9 -8 -5 -9 3 -15 0
-15 -6 1 -32 -4 -48 -13 -42 -5 3 -10 0 -10 -8 0 -8 -7 -20 -15 -27 -8 -7 -13
-16 -10 -20 3 -5 2 -16 -1 -25 -5 -12 -9 -13 -14 -5 -5 8 -10 2 -14 -14 -3
-14 -11 -26 -17 -26 -6 0 -7 -4 -4 -10 3 -5 1 -10 -5 -10 -6 0 -18 -7 -26 -15
-9 -8 -12 -15 -7 -15 4 0 -4 -8 -20 -18 -15 -10 -24 -22 -20 -25 3 -4 1 -7 -6
-7 -17 0 -36 -21 -36 -40 0 -8 -6 -14 -13 -12 -6 1 -12 -5 -12 -13 0 -8 -7
-15 -15 -15 -23 0 -84 -34 -85 -47 0 -12 -15 -17 -47 -16 -7 1 -10 -3 -7 -8 3
-5 -4 -9 -15 -9 -12 0 -21 -5 -21 -11 0 -5 -4 -7 -10 -4 -5 3 -10 2 -10 -3 0
-5 -11 -14 -25 -20 -19 -9 -25 -9 -25 1 0 6 -5 4 -11 -5 -5 -10 -15 -18 -22
-18 -7 0 -6 4 3 10 12 8 10 10 -8 10 -13 0 -20 -4 -17 -10 4 -6 -7 -10 -26
-10 -18 0 -29 -3 -25 -7 4 -4 -17 -12 -46 -18 -36 -7 -55 -7 -60 0 -5 7 -8 7
-8 0 0 -6 -16 -10 -35 -10 -19 1 -32 -2 -30 -5 3 -4 -7 -7 -20 -7 -14 0 -25 5
-25 11 0 6 -5 4 -10 -4 -5 -8 -10 -11 -10 -6 0 5 -7 3 -15 -4 -13 -11 -14 -10
-8 6 6 17 5 17 -10 5 -12 -9 -17 -10 -17 -2 0 7 -5 9 -10 6 -6 -4 -8 -10 -5
-15 3 -4 -4 -6 -15 -3 -11 3 -17 10 -13 17 4 6 -1 5 -10 -3 -14 -11 -17 -11
-17 0 0 8 -6 5 -15 -7 -8 -10 -14 -13 -13 -5 2 7 -7 15 -19 17 -13 2 -23 -1
-23 -6 0 -6 -11 -3 -25 6 -14 9 -34 14 -45 11 -11 -3 -18 -1 -15 3 3 5 1 11
-5 15 -6 4 -8 10 -6 14 3 4 -1 8 -9 8 -8 0 -12 -5 -9 -11 3 -6 -1 -3 -9 6 -8
10 -20 18 -26 18 -7 0 -10 4 -6 9 3 6 -4 15 -15 21 -11 6 -20 16 -20 22 0 6
-8 20 -17 31 -13 15 -14 18 -3 12 12 -6 13 -5 3 6 -7 7 -13 21 -13 30 0 10 -4
19 -9 21 -5 2 -11 24 -14 51 -3 26 -9 52 -12 57 -3 6 -2 10 3 10 5 0 8 12 6
28 -6 40 -6 133 -1 138 3 3 1 21 -3 40 -4 18 -4 34 0 34 4 0 6 12 4 28 -6 41
-6 133 -1 139 3 2 1 18 -3 34 -5 16 -5 31 0 34 9 6 2 44 -11 61 -5 6 -6 14 -2
18 13 12 19 138 8 156 -4 6 -2 10 3 10 5 0 8 12 6 28 -6 40 -6 133 -1 138 3 3
1 21 -3 40 -4 18 -4 34 0 34 4 0 6 12 4 28 -2 15 -4 51 -4 80 1 28 1 59 0 67
0 8 0 22 0 30 0 8 0 31 0 50 1 19 0 60 0 91 -1 31 1 58 3 60 3 3 1 21 -3 40
-4 18 -4 34 0 34 4 0 5 15 3 33 -8 53 -9 209 -1 213 3 2 4 18 1 35 -9 58 2 74
46 74 22 0 37 -4 34 -9z m-1183 -86 c0 -5 -5 -10 -11 -10 -5 0 -7 5 -4 10 3 6
8 10 11 10 2 0 4 -4 4 -10z m-25 -809 c1 -49 -2 -78 -7 -75 -6 4 -5 -3 1 -15
10 -19 9 -21 -11 -21 -13 0 -29 9 -36 21 -10 16 -16 18 -27 9 -9 -8 -15 -8
-20 0 -5 8 -11 8 -21 -1 -12 -10 -17 -9 -27 0 -9 10 -8 11 8 5 11 -4 17 -3 12
2 -13 13 -145 11 -140 -3 5 -12 -14 -12 -34 0 -6 4 -13 1 -16 -5 -3 -10 -7
-10 -17 -1 -9 9 -7 14 11 24 13 7 27 12 32 11 4 -1 7 3 7 8 0 6 7 10 15 10 8
0 15 5 15 10 0 6 5 10 11 10 5 0 7 -6 4 -12 -4 -7 3 -2 15 12 13 14 29 24 37
22 9 -2 12 1 8 7 -6 11 7 15 33 12 6 -1 12 4 12 11 0 10 2 10 9 -1 6 -9 11
-10 15 -2 4 6 22 11 39 11 24 0 28 3 17 10 -12 8 -11 10 8 10 14 0 22 6 22 17
0 13 3 14 12 5 6 -6 12 -47 13 -91z m-623 4 c0 -5 -5 -10 -11 -11 -8 -2 -7 -1
0 3 8 4 7 8 -2 15 -11 8 -11 9 -1 6 8 -2 14 -8 14 -13z m392 -83 c3 -5 -1 -9
-9 -9 -8 0 -12 4 -9 9 3 4 7 8 9 8 2 0 6 -4 9 -8z m24 -81 c2 -6 16 -11 30
-11 21 0 24 -2 12 -10 -14 -9 -7 -14 13 -11 4 1 12 -11 18 -26 6 -15 15 -31
21 -34 6 -4 11 -17 12 -30 1 -13 6 -23 12 -22 5 1 9 -23 9 -52 -1 -42 3 -55
16 -58 23 -6 40 6 42 31 1 14 5 18 13 12 6 -6 13 -8 16 -5 8 8 6 -29 -2 -40
-12 -17 -9 -315 3 -315 8 0 7 -4 0 -11 -6 -6 -9 -18 -6 -25 3 -8 0 -14 -7 -14
-6 0 -8 -5 -4 -11 10 -16 11 -109 1 -109 -5 0 -6 -4 -2 -9 3 -5 1 -12 -4 -16
-6 -3 -9 -35 -8 -71 2 -43 -2 -69 -10 -76 -11 -9 -11 -14 -1 -26 11 -13 11
-14 -1 -7 -11 6 -13 3 -9 -13 4 -12 2 -25 -3 -28 -5 -3 -7 -9 -4 -13 2 -5 -4
-16 -15 -26 -11 -10 -20 -24 -20 -32 0 -8 -4 -11 -10 -8 -5 3 -10 -1 -10 -10
0 -9 -4 -13 -10 -10 -5 3 -10 0 -10 -8 0 -8 -8 -21 -17 -28 -15 -12 -16 -12
-8 1 4 8 -4 4 -20 -10 -16 -14 -25 -19 -21 -13 10 18 2 16 -24 -7 -13 -11 -32
-20 -42 -20 -13 0 -17 -4 -12 -12 5 -8 0 -7 -11 2 -11 9 -16 10 -11 3 9 -16 1
-16 -26 -2 -15 8 -19 8 -14 0 10 -15 -7 -14 -23 1 -11 11 -12 10 -6 -1 6 -11
3 -13 -13 -9 -12 4 -22 3 -22 -1 0 -4 -22 -6 -50 -4 -27 1 -52 -2 -55 -7 -8
-14 -165 -13 -165 0 0 13 -32 9 -42 -5 -5 -6 -8 -5 -8 3 0 6 -9 12 -20 12 -11
0 -20 7 -20 15 0 9 -6 12 -15 9 -9 -4 -15 0 -15 9 0 8 -7 18 -16 21 -10 4 -13
2 -9 -7 4 -6 -3 -1 -14 13 -11 14 -21 31 -21 38 0 6 -4 12 -10 12 -5 0 -10 7
-10 15 0 8 -4 15 -10 15 -5 0 -9 3 -9 8 1 4 1 16 0 27 -1 16 -3 17 -10 6 -6
-9 -10 26 -10 93 -1 70 2 105 9 101 5 -3 10 3 10 15 0 12 4 18 10 15 6 -3 7 1
4 9 -4 10 -1 16 7 16 7 0 9 3 6 7 -4 3 -1 13 6 21 10 13 9 15 -3 8 -8 -4 -6 0
4 8 11 9 15 16 9 16 -14 0 26 80 43 87 8 3 14 11 14 18 0 7 11 20 25 29 14 9
23 20 21 25 -5 8 29 37 36 30 2 -2 21 13 42 34 21 21 44 36 50 34 7 -3 18 4
24 14 7 10 21 19 33 19 11 0 17 5 14 10 -3 6 3 10 14 10 11 0 23 5 26 10 5 8
11 7 21 -1 11 -9 14 -9 14 0 0 7 5 9 13 4 18 -11 38 -13 31 -2 -3 5 -1 9 5 9
5 0 12 -4 15 -9 9 -13 47 -1 40 13 -3 6 1 3 9 -7 10 -12 16 -14 19 -6 3 9 14
8 43 -2 22 -8 42 -17 45 -21 3 -4 18 -11 33 -17 15 -6 27 -18 27 -26 0 -9 4
-14 9 -11 5 3 11 -4 14 -15 4 -13 10 -18 17 -14 9 5 10 1 5 -14 -4 -12 -2 -21
4 -21 6 0 11 -7 11 -15 0 -8 5 -15 10 -15 6 0 10 -5 10 -11 0 -5 -6 -7 -12 -3
-8 5 -8 1 1 -10 13 -15 13 -19 0 -27 -11 -7 -11 -9 4 -9 17 0 17 -1 3 -16 -18
-17 -21 -28 -6 -19 6 3 9 -4 8 -19 -1 -13 -5 -23 -9 -20 -4 2 -10 -9 -14 -25
-3 -16 -13 -32 -21 -35 -10 -4 -13 -13 -9 -26 4 -12 2 -20 -5 -20 -6 0 -9 -4
-6 -9 7 -11 -17 -21 -31 -13 -6 4 -12 15 -14 25 -2 10 -8 17 -12 15 -5 -2 -15
13 -23 32 -8 19 -20 38 -27 42 -9 6 -9 8 1 8 6 0 12 7 12 15 0 8 7 15 15 15 8
0 14 3 14 8 -4 21 2 32 13 26 8 -5 9 -2 5 9 -3 9 -2 19 3 22 6 4 10 17 10 29
0 20 -5 23 -30 21 -17 -1 -30 2 -30 9 0 7 -3 8 -8 1 -10 -15 -98 -12 -94 3 1
7 -3 12 -9 12 -6 0 -9 6 -6 14 3 8 -1 20 -8 26 -8 7 -12 16 -9 21 3 5 -2 9
-10 9 -9 0 -16 6 -16 14 0 29 -52 26 -58 -4 -2 -8 -8 -16 -13 -18 -5 -2 -9
-10 -9 -18 0 -8 -4 -14 -10 -14 -5 0 -6 -7 -3 -17 4 -10 2 -14 -5 -9 -6 3 -13
-2 -16 -12 -5 -14 -15 -18 -49 -17 -24 1 -50 5 -57 10 -9 5 -11 4 -6 -3 6 -11
-11 -17 -36 -13 -4 0 -4 -9 -2 -22 3 -12 8 -33 11 -47 3 -14 12 -31 21 -37 9
-7 12 -13 7 -13 -5 0 0 -6 11 -14 19 -14 18 -15 -4 -35 -13 -11 -24 -26 -26
-33 -1 -7 -5 -19 -9 -25 -5 -7 -5 -18 -2 -23 3 -5 -2 -11 -12 -11 -17 -1 -17
-2 0 -6 14 -3 15 -8 7 -18 -8 -10 -2 -13 27 -13 21 0 43 -1 48 -2 6 -1 20 -1
32 0 13 1 33 -6 45 -14 12 -9 17 -16 11 -16 -7 0 -1 -12 12 -26 14 -15 25 -35
25 -45 0 -13 7 -19 21 -19 13 0 18 -4 13 -12 -4 -7 4 -2 18 12 13 14 23 28 21
33 -5 8 -5 8 67 9 30 1 58 5 61 10 3 5 15 11 25 13 10 2 19 4 19 5 0 1 8 3 18
5 24 5 48 25 41 36 -2 5 6 11 20 15 14 3 25 9 25 13 -2 12 13 51 20 51 3 0 12
9 19 21 11 17 11 20 0 14 -7 -3 -5 0 6 9 10 8 16 22 13 30 -3 8 -1 16 6 19 18
6 18 157 0 157 -8 0 -12 4 -9 9 10 16 -12 58 -52 99 -22 23 -37 43 -34 46 3 3
-5 6 -17 6 -12 0 -24 7 -27 15 -4 8 -14 15 -24 15 -10 0 -23 7 -30 15 -7 8
-18 15 -24 15 -6 0 -4 -5 4 -10 13 -8 13 -10 -2 -10 -9 0 -18 5 -20 12 -6 18
-189 18 -196 0 -4 -11 -6 -11 -13 0 -6 9 -9 9 -9 1 0 -7 -16 -15 -35 -19 -19
-3 -35 -11 -35 -17 0 -6 -3 -7 -7 -4 -3 4 -17 0 -30 -8 -13 -9 -29 -13 -35 -9
-6 4 -8 3 -5 -3 8 -13 -21 -40 -48 -45 -11 -1 -24 -11 -30 -22 -5 -10 -14 -18
-18 -17 -5 1 -17 -7 -26 -18 -20 -22 -31 -18 -31 11 0 10 7 18 16 18 8 0 12 5
8 11 -3 6 0 15 7 20 8 4 15 13 15 19 1 5 2 15 3 21 0 5 6 7 13 3 7 -4 8 -3 4
4 -4 7 4 23 17 36 14 14 23 27 20 29 -6 7 65 77 77 77 6 0 9 6 7 13 -1 6 3 11
8 10 6 0 16 5 23 13 7 8 10 14 6 14 -4 0 11 16 32 35 21 19 44 35 51 35 7 0
12 3 12 8 -3 19 2 33 10 27 5 -3 12 -1 16 5 4 6 11 8 16 5 5 -4 9 1 9 10 0 9
5 13 10 10 6 -3 10 -1 10 4 0 6 3 10 8 10 19 -3 33 2 27 11 -4 6 7 10 25 10
17 0 29 4 25 9 -7 12 24 16 90 14 27 0 51 -6 53 -12z m-814 -968 c0 -16 4 -31
9 -35 10 -6 20 -68 12 -68 -2 0 -12 15 -23 34 -15 25 -17 37 -9 45 6 6 7 11 1
11 -5 0 -10 9 -10 20 0 11 5 20 11 20 6 0 10 -12 9 -27z m3431 -343 c3 -5 1
-10 -4 -10 -6 0 -11 5 -11 10 0 6 2 10 4 10 3 0 8 -4 11 -10z"/>
<path d="M3705 3730 c-4 -6 -11 -7 -17 -4 -6 4 -8 2 -5 -4 7 -10 32 -11 42 0
4 3 2 9 -4 12 -5 4 -12 2 -16 -4z"/>
<path d="M2727 6459 c7 -7 15 -10 18 -7 3 3 -2 9 -12 12 -14 6 -15 5 -6 -5z"/>
<path d="M2795 6460 c-3 -5 -1 -10 4 -10 6 0 11 5 11 10 0 6 -2 10 -4 10 -3 0
-8 -4 -11 -10z"/>
<path d="M3210 5760 c0 -5 5 -10 11 -10 5 0 7 5 4 10 -3 6 -8 10 -11 10 -2 0
-4 -4 -4 -10z"/>
<path d="M2346 5226 c-9 -11 -16 -24 -16 -29 0 -5 -9 -20 -20 -34 -11 -14 -17
-30 -13 -36 3 -5 1 -7 -5 -3 -6 3 -13 3 -16 -2 -6 -9 -59 -8 -75 3 -6 3 -14
-1 -17 -10 -5 -13 -9 -14 -15 -4 -6 11 -12 11 -33 0 -25 -14 -25 -14 -5 -30
11 -9 21 -29 23 -45 2 -16 10 -35 20 -41 20 -15 21 -44 1 -59 -14 -10 -25 -41
-27 -73 -1 -7 -10 -15 -21 -19 -18 -6 -18 -7 4 -18 16 -8 28 -9 37 -3 8 6 12
6 12 -1 0 -6 6 -9 14 -6 8 3 17 1 21 -5 8 -14 52 -14 60 -1 4 6 11 8 16 4 6
-3 5 -12 -3 -22 -7 -10 -9 -14 -4 -10 9 8 53 -41 48 -54 -1 -5 2 -8 7 -8 5 0
11 -8 13 -17 2 -9 13 -17 25 -18 16 -1 25 6 32 27 6 15 15 28 21 28 6 0 9 4 6
8 -3 5 3 20 12 34 13 19 24 25 47 22 16 -2 32 1 35 7 4 5 24 11 46 12 37 2 39
4 37 32 -2 16 -7 31 -13 33 -6 2 -8 8 -4 13 3 5 0 9 -6 9 -6 0 -9 4 -6 8 3 5
-4 15 -15 22 -23 17 -25 36 -3 44 10 4 14 12 10 23 -4 10 -4 14 0 11 3 -4 13
-1 20 7 17 17 18 28 2 20 -7 -4 -6 -1 2 7 8 7 16 26 16 41 1 26 -1 28 -40 26
-23 -2 -47 1 -53 4 -7 4 -16 -1 -22 -10 -6 -10 -11 -12 -11 -5 0 6 -7 12 -15
12 -8 0 -15 6 -15 13 0 7 -9 20 -20 30 -12 10 -18 22 -15 27 3 6 2 10 -3 10
-6 0 -12 10 -16 23 -7 28 -38 30 -60 3z"/>
<path d="M1118 4073 c7 -3 16 -2 19 1 4 3 -2 6 -13 5 -11 0 -14 -3 -6 -6z"/>
<path d="M6823 1873 c-3 -7 -9 -11 -13 -8 -10 6 -31 -51 -22 -61 4 -4 2 -4 -5
0 -21 12 -51 -32 -48 -70 1 -19 -3 -37 -8 -41 -6 -4 -7 -1 -2 7 5 8 4 11 -1 7
-5 -3 -11 -19 -12 -36 -2 -23 6 -39 28 -62 16 -17 27 -35 25 -40 -3 -4 -1 -10
5 -14 6 -4 8 -11 5 -16 -6 -9 -2 -11 55 -13 30 -2 35 -6 38 -28 5 -39 59 -42
84 -5 3 6 25 10 47 10 23 0 41 4 41 9 0 5 4 7 9 3 12 -7 33 29 24 39 -3 3 4 6
16 6 14 0 20 4 15 12 -5 7 -1 9 13 6 18 -5 19 -1 18 49 -1 30 4 65 10 77 10
19 9 27 -6 45 -11 13 -19 20 -19 16 0 -3 -7 1 -17 10 -14 14 -14 18 -2 26 12
7 12 9 0 9 -8 0 -11 3 -8 6 3 4 2 15 -4 25 -7 14 -21 19 -54 19 -29 0 -45 4
-45 13 0 16 -68 16 -98 -1 -16 -9 -22 -10 -20 -1 4 16 -43 19 -49 2z"/>
<path d="M6862 1423 c-6 -3 -9 -9 -6 -15 4 -6 -2 -6 -14 1 -11 6 -23 11 -27
11 -3 0 -3 -5 1 -11 4 -8 1 -8 -13 -1 -24 13 -50 -12 -45 -43 2 -15 -3 -20
-22 -20 -18 0 -22 3 -14 13 7 8 7 12 -1 12 -7 0 -9 5 -6 10 3 6 -1 10 -9 10
-8 0 -22 7 -30 16 -15 14 -17 14 -32 0 -8 -9 -20 -14 -25 -11 -5 4 -9 1 -9 -6
0 -20 -43 -109 -52 -109 -5 0 -7 -4 -4 -9 3 -5 -15 -19 -39 -32 -25 -13 -46
-31 -46 -39 -9 -93 -4 -120 23 -120 11 0 16 -5 13 -11 -4 -6 -10 -8 -13 -5 -3
3 -14 -2 -25 -11 -10 -10 -22 -18 -26 -18 -3 0 -5 -5 -5 -12 1 -6 -4 -9 -10
-7 -6 2 -12 -7 -12 -21 -1 -14 2 -25 7 -25 5 0 9 -7 9 -15 0 -8 7 -15 16 -15
8 0 13 -4 9 -9 -5 -10 33 -27 49 -22 5 1 3 -5 -4 -14 -7 -9 -9 -15 -4 -14 23
4 36 -2 31 -16 -4 -8 -1 -17 4 -21 6 -3 9 -15 6 -25 -3 -11 -1 -19 4 -19 5 0
8 -3 8 -7 -4 -23 4 -33 35 -44 19 -7 33 -16 30 -21 -3 -4 2 -5 10 -2 9 3 14
10 11 14 -3 5 3 7 12 6 28 -4 51 15 45 37 -3 14 -1 18 6 13 16 -10 15 -43 0
-50 -10 -5 -10 -7 0 -12 6 -3 12 -10 12 -15 0 -6 -5 -7 -11 -3 -7 4 -6 -3 2
-17 7 -13 12 -27 11 -32 -1 -4 1 -6 5 -6 5 1 10 0 13 -1 16 -6 60 -4 60 3 0 4
5 5 10 2 6 -3 10 -1 10 5 0 6 4 9 9 6 4 -3 21 6 37 19 16 14 34 23 40 21 6 -3
17 1 24 7 10 9 12 9 8 -3 -4 -11 2 -15 23 -15 16 -1 29 3 29 8 0 4 5 5 10 2 6
-4 24 8 41 24 17 17 34 29 38 27 4 -3 8 6 9 20 1 14 -3 23 -11 21 -6 -1 -11 4
-9 11 1 7 -5 15 -13 18 -8 3 -13 10 -10 14 3 5 20 3 38 -3 17 -7 41 -12 52
-11 11 1 26 2 34 3 8 1 11 4 8 7 -3 4 3 18 13 32 18 22 19 28 6 46 -23 36 -27
100 -9 126 20 28 25 110 7 110 -7 0 -16 9 -19 20 -6 20 -9 22 -47 24 -26 1
-39 36 -13 36 9 0 14 4 11 9 -4 5 0 12 6 14 10 4 9 6 -1 6 -11 1 -11 4 -1 16
9 10 9 15 1 15 -6 0 -11 6 -11 14 0 14 -41 46 -60 46 -6 0 -8 -5 -3 -12 4 -8
-4 -6 -18 4 -14 9 -31 13 -38 9 -18 -12 -61 -1 -61 15 0 8 -8 18 -17 21 -10 4
-22 12 -28 19 -5 6 -16 10 -23 7z"/>
</g>
</svg>
